<svg version="1" xmlns="http://www.w3.org/2000/svg" width="682.667" height="682.667" viewBox="0 0 512.000000 512.000000"><path d="M230.5 71.5c-19.3 3.1-37.8 10.2-52.7 20.1-33.2 22.1-49.9 61.5-43.3 102.3 3.6 22.1 11.7 37.6 27.3 52.3 16.5 15.5 37.1 25.8 72.7 36.2 42.5 12.5 55.9 17.8 64.9 25.7 6.3 5.6 8.5 10.5 8.6 19 0 18.8-16.3 28.9-46.5 28.9-22 0-40-6.4-53.8-19-5.6-5.1-13.8-16.3-17.7-24-1.2-2.5-2.4-4.7-2.6-4.9-.6-.6-68.4 39.1-68.4 40.1 0 2.3 8.4 18.7 13.7 26.7 6.9 10.5 23.1 26.8 33.3 33.5 23.9 16 50.6 23.9 85 25.3 51.8 2 95.8-15.3 118.9-47.1 6-8.1 12.6-22.5 15.3-33.2 2-7.7 2.3-11.5 2.3-27.4 0-16.2-.3-19.6-2.3-27-4.8-17.7-14.8-33.5-27.9-44.2-18.4-15-32.5-21.3-86.8-38.7-23.7-7.6-41.1-15.4-48.3-21.6-10.8-9.4-12.2-24.6-3-35 7.3-8.2 20.7-12.3 36.7-11.1 10.1.7 17.3 2.5 24.7 6.1 10.4 5.1 20.6 15.5 26.7 27.3 1.7 3.4 3.7 6.1 4.3 6 2.6-.7 66.3-38.4 66.4-39.3 0-1.4-9.6-17.3-15-24.7-6.7-9.2-20.7-22.7-30.7-29.5-15.9-10.9-31.6-17.5-51.2-21.4-13.2-2.6-38.6-3.3-50.6-1.4z"/></svg>