<?xml version="1.0" standalone="no"?>
<!DOCTYPE svg PUBLIC "-//W3C//DTD SVG 20010904//EN"
 "http://www.w3.org/TR/2001/REC-SVG-20010904/DTD/svg10.dtd">
<svg version="1.0" xmlns="http://www.w3.org/2000/svg"
 width="1024.000000pt" height="1024.000000pt" viewBox="0 0 1024.000000 1024.000000"
 preserveAspectRatio="xMidYMid meet">
<metadata>
Created by potrace 1.14, written by Peter Selinger 2001-2017
</metadata>
<g transform="translate(0.000000,1024.000000) scale(0.100000,-0.100000)"
fill="#000000" stroke="none">
<path d="M0 8465 l0 -1775 95 -187 c147 -292 311 -537 528 -788 115 -133 366
-380 502 -494 731 -609 1714 -1077 3085 -1467 146 -41 400 -114 565 -161 1472
-419 2169 -719 2526 -1090 83 -86 165 -197 206 -278 39 -76 81 -212 98 -314
24 -139 17 -380 -14 -494 -134 -507 -556 -816 -1293 -951 -270 -50 -412 -60
-823 -60 -476 -1 -692 22 -1051 109 -1000 242 -1719 857 -2219 1898 -49 103
-95 185 -100 183 -6 -2 -481 -276 -1055 -609 l-1045 -606 -3 -691 -2 -690
5120 0 5120 0 0 2318 0 2318 -158 155 c-382 377 -789 657 -1387 957 -600 300
-1156 504 -2450 901 -951 291 -1425 464 -1885 688 -256 124 -415 217 -570 334
-259 195 -409 401 -477 654 -24 93 -26 115 -27 305 0 180 2 214 21 282 146
518 618 849 1334 934 271 32 707 16 997 -36 556 -100 1033 -351 1401 -736 232
-242 474 -598 653 -958 24 -48 48 -85 55 -84 7 2 571 329 1253 728 l1239 725
1 378 0 377 -5120 0 -5120 0 0 -1775z"/>
<path d="M4788 9140 c-315 -28 -553 -114 -683 -245 -97 -96 -124 -180 -105
-326 12 -101 36 -151 103 -221 281 -293 998 -602 2347 -1013 228 -69 537 -165
685 -212 1340 -424 2240 -848 2962 -1394 l143 -108 0 1514 c0 833 -2 1515 -4
1515 -3 0 -483 -280 -1067 -622 -584 -342 -1067 -621 -1073 -621 -6 0 -213 62
-461 138 -247 75 -471 144 -497 151 l-47 14 -79 153 c-170 328 -310 526 -521
738 -111 111 -173 163 -261 222 -248 164 -519 259 -857 301 -153 19 -458 27
-585 16z"/>
<path d="M0 3772 c0 -860 3 -1561 8 -1559 4 2 394 228 866 502 473 274 867
500 876 502 10 3 244 -70 521 -161 l504 -166 43 -98 c101 -226 255 -487 400
-682 105 -141 344 -382 472 -478 365 -272 744 -417 1275 -489 187 -25 841 -25
1030 0 469 63 773 191 867 364 56 103 57 286 2 395 -56 111 -223 240 -474 368
-405 205 -978 400 -2080 710 -625 176 -1004 295 -1385 438 -1237 462 -2160
1049 -2810 1787 -48 55 -94 107 -101 115 -12 12 -14 -236 -14 -1548z"/>
</g>
</svg>
