<?xml version="1.0" standalone="no"?>
<!DOCTYPE svg PUBLIC "-//W3C//DTD SVG 20010904//EN"
 "http://www.w3.org/TR/2001/REC-SVG-20010904/DTD/svg10.dtd">
<svg version="1.0" xmlns="http://www.w3.org/2000/svg"
 width="1024.000000pt" height="1024.000000pt" viewBox="0 0 1024.000000 1024.000000"
 preserveAspectRatio="xMidYMid meet">
<metadata>
Created by potrace 1.14, written by Peter Selinger 2001-2017
</metadata>
<g transform="translate(0.000000,1024.000000) scale(0.100000,-0.100000)"
fill="#000000" stroke="none">
<path d="M0 5120 l0 -5120 5120 0 5120 0 0 5120 0 5120 -5120 0 -5120 0 0
-5120z m3775 1820 c408 -86 724 -322 929 -692 l37 -67 -108 -64 c-484 -286
-566 -331 -577 -314 -6 9 -27 45 -46 79 -74 133 -207 239 -356 284 -91 28
-299 26 -376 -4 -77 -31 -117 -60 -153 -110 -26 -38 -30 -54 -33 -121 -5 -95
13 -137 86 -203 92 -82 233 -143 585 -253 117 -37 255 -82 307 -102 510 -189
743 -465 767 -903 16 -304 -73 -561 -265 -761 -239 -250 -592 -379 -1037 -379
-637 0 -1112 268 -1351 763 -26 53 -45 99 -43 102 7 6 678 395 683 395 2 0 23
-35 46 -77 138 -256 342 -383 640 -400 186 -10 344 23 433 91 118 90 128 263
22 370 -82 81 -239 148 -580 246 -236 68 -361 113 -491 174 -378 181 -567 432
-604 805 -27 263 45 525 199 728 177 234 479 395 821 437 89 11 367 -4 465
-24z m2245 -710 l0 -670 545 0 545 0 0 670 0 670 405 0 405 0 0 -1750 0 -1750
-405 0 -405 0 0 695 0 695 -545 0 -545 0 0 -695 0 -695 -405 0 -405 0 0 1750
0 1750 405 0 405 0 0 -670z"/>
</g>
</svg>
