<?xml version="1.0" standalone="no"?>
<!DOCTYPE svg PUBLIC "-//W3C//DTD SVG 20010904//EN"
 "http://www.w3.org/TR/2001/REC-SVG-20010904/DTD/svg10.dtd">
<svg version="1.0" xmlns="http://www.w3.org/2000/svg"
 width="700.000000pt" height="700.000000pt" viewBox="0 0 700.000000 700.000000"
 preserveAspectRatio="xMidYMid meet">
<metadata>
Created by potrace 1.11, written by Peter Selinger 2001-2013
</metadata>
<g transform="translate(0.000000,700.000000) scale(0.100000,-0.100000)"
fill="#000000" stroke="none">
<path d="M0 3500 l0 -3500 3500 0 3500 0 0 3500 0 3500 -3500 0 -3500 0 0
-3500z m6560 0 l0 -3060 -3060 0 -3060 0 0 3060 0 3060 3060 0 3060 0 0 -3060z"/>
<path d="M1960 5123 c-563 -42 -957 -343 -1052 -803 -24 -114 -21 -326 6 -425
39 -142 130 -275 264 -382 111 -88 237 -145 554 -252 455 -152 557 -214 597
-357 55 -198 -94 -357 -371 -393 -238 -32 -504 70 -655 250 -14 16 -29 29 -33
27 -4 -2 -114 -120 -244 -263 l-237 -260 51 -47 c115 -103 310 -214 470 -267
250 -81 593 -100 858 -45 382 79 653 284 782 591 16 37 38 115 50 173 19 89
21 128 17 255 -5 172 -19 232 -77 352 -28 57 -62 105 -115 161 -138 147 -273
218 -610 322 -282 87 -397 130 -473 179 -109 71 -149 146 -140 264 6 75 22
108 78 164 178 178 609 166 820 -24 l51 -46 34 34 c18 19 123 133 233 253
l200 219 -53 43 c-193 157 -439 246 -755 274 -112 10 -156 10 -250 3z"/>
<path d="M3310 3500 l0 -1550 340 0 340 0 0 670 0 670 665 0 665 0 0 -670 0
-670 340 0 340 0 0 1550 0 1550 -340 0 -340 0 0 -580 0 -580 -662 2 -663 3 -3
578 -2 577 -340 0 -340 0 0 -1550z"/>
</g>
</svg>
