<svg xmlns="http://www.w3.org/2000/svg" width="100" height="50"><g fill="#fff"><path d="M44.866 25.581c0 3.406-2.664 5.915-5.932 5.915-3.27 0-5.934-2.51-5.934-5.915 0-3.43 2.664-5.915 5.933-5.915 3.27 0 5.933 2.486 5.933 5.915Zm-2.597 0c0-2.127-1.543-3.584-3.335-3.584-1.793 0-3.337 1.457-3.337 3.584 0 2.107 1.545 3.584 3.337 3.584 1.792 0 3.335-1.48 3.335-3.584ZM57.667 25.581c0 3.406-2.664 5.915-5.933 5.915-3.27 0-5.934-2.51-5.934-5.915 0-3.427 2.664-5.915 5.933-5.915 3.27 0 5.934 2.486 5.934 5.915Zm-2.597 0c0-2.127-1.545-3.584-3.337-3.584-1.791 0-3.336 1.457-3.336 3.584 0 2.107 1.545 3.584 3.336 3.584 1.793 0 3.337-1.48 3.337-3.584ZM69.933 20.024v10.619c0 4.367-2.576 6.152-5.62 6.152-2.868 0-4.593-1.918-5.244-3.485l2.262-.942c.403.963 1.39 2.099 2.978 2.099 1.95 0 3.157-1.203 3.157-3.467v-.85h-.09c-.581.717-1.702 1.343-3.115 1.343-2.957 0-5.666-2.576-5.666-5.89 0-3.339 2.709-5.937 5.666-5.937 1.411 0 2.53.627 3.115 1.323h.09v-.962h2.467v-.002Zm-2.282 5.579c0-2.083-1.39-3.606-3.157-3.606-1.793 0-3.294 1.523-3.294 3.606 0 2.061 1.502 3.562 3.294 3.562 1.767 0 3.157-1.5 3.157-3.562ZM74 13.8v17.333h-2.533V13.8zM83.872 27.528l2.016 1.344c-.65.962-2.219 2.621-4.928 2.621-3.36 0-5.87-2.597-5.87-5.915 0-3.517 2.531-5.914 5.58-5.914 3.068 0 4.57 2.443 5.06 3.762l.27.673-7.906 3.274c.604 1.187 1.546 1.792 2.866 1.792 1.323 0 2.24-.65 2.912-1.637ZM77.667 25.4l5.285-2.195c-.29-.738-1.165-1.253-2.194-1.253-1.32 0-3.158 1.165-3.091 3.448ZM23.41 24.043v-2.51h8.457c.083.437.125.955.125 1.515 0 1.882-.515 4.21-2.174 5.869-1.612 1.68-3.674 2.576-6.405 2.576-5.061 0-9.317-4.123-9.317-9.183 0-5.062 4.255-9.185 9.317-9.185 2.8 0 4.795 1.099 6.292 2.531l-1.77 1.771c-1.074-1.008-2.53-1.793-4.525-1.793-3.696 0-6.587 2.98-6.587 6.675 0 3.696 2.89 6.675 6.587 6.675 2.397 0 3.762-.963 4.637-1.837.71-.71 1.176-1.723 1.36-3.107l-5.997.003Z"/></g></svg>