<svg xmlns="http://www.w3.org/2000/svg" width="100" height="44" fill="none"><path fill="#fff" fill-rule="evenodd" d="M43.225 14.824h-2.701v13.653h2.204V18.013l4.027 7.246h2.068l4.027-7.246v10.464h2.204V14.824h-2.643l-4.593 8.31-4.593-8.31Zm16.247 13.22c.773.451 1.67.677 2.691.677 1.69 0 3.118-.533 4.282-1.6l-1.17-1.433a4.319 4.319 0 0 1-1.337.888c-.474.195-1.04.292-1.697.292-.819 0-1.497-.239-2.033-.717-.536-.477-.873-1.132-1.01-1.965h7.48v-.604c0-1.112-.188-2.08-.565-2.906-.377-.826-.915-1.468-1.614-1.926-.699-.459-1.533-.688-2.501-.688-.976 0-1.839.228-2.59.683a4.734 4.734 0 0 0-1.76 1.892c-.422.806-.634 1.732-.634 2.78 0 1.033.216 1.95.649 2.75a4.74 4.74 0 0 0 1.809 1.876Zm2.487-8.129c.747 0 1.352.236 1.813.707.462.471.725 1.123.79 1.955H59.2c.13-.812.44-1.46.931-1.94.49-.481 1.1-.722 1.829-.722Zm7.392.195h-2.029v-1.804h2.029v-2.984h2.126v2.984h3.081v1.804h-3.081v4.574c0 .76.13 1.303.39 1.628.26.326.705.488 1.336.488.28 0 .517-.011.712-.034.195-.023.41-.054.643-.093v1.785a6.41 6.41 0 0 1-1.765.244c-2.295 0-3.442-1.255-3.442-3.765V20.11Zm14.199 8.367h2.087V18.306H83.55v1.307a3.702 3.702 0 0 0-1.375-1.146c-.553-.27-1.177-.405-1.872-.405-.924 0-1.741.228-2.453.683-.712.455-1.27 1.082-1.672 1.882-.404.8-.605 1.72-.605 2.76 0 1.034.198 1.952.595 2.755.396.803.94 1.433 1.633 1.892.693.458 1.487.687 2.385.687.728 0 1.378-.145 1.95-.434a3.77 3.77 0 0 0 1.414-1.233v1.423Zm-1.117-7.982a2.9 2.9 0 0 1 1.078 1.37v3.053a2.865 2.865 0 0 1-1.112 1.365 3.12 3.12 0 0 1-1.755.507c-.89 0-1.596-.305-2.116-.916s-.78-1.44-.78-2.487c0-1.04.27-1.866.809-2.477.54-.611 1.264-.917 2.175-.917.643 0 1.21.168 1.701.502Z" clip-rule="evenodd"/><path fill="#fff" d="M29.875 14.363c-1.772 0-3.158 1.335-4.412 3.03-1.723-2.194-3.165-3.03-4.89-3.03-3.516 0-6.21 4.576-6.21 9.42 0 3.031 1.466 4.943 3.922 4.943 1.768 0 3.04-.834 5.3-4.784l1.59-2.81c.227.366.466.761.718 1.185l1.06 1.783c2.064 3.455 3.215 4.626 5.3 4.626 2.392 0 3.724-1.938 3.724-5.032 0-5.072-2.755-9.331-6.102-9.331Zm-8.014 8.509c-1.832 2.872-2.466 3.516-3.486 3.516-1.05 0-1.674-.922-1.674-2.565 0-3.517 1.753-7.113 3.843-7.113 1.132 0 2.078.654 3.526 2.728a286.365 286.365 0 0 0-2.209 3.434Zm6.916-.362-1.267-2.113a43.816 43.816 0 0 0-.989-1.54c1.143-1.763 2.085-2.642 3.205-2.642 2.328 0 4.19 3.428 4.19 7.637 0 1.605-.525 2.536-1.614 2.536-1.044 0-1.543-.69-3.524-3.878Z"/></svg>