<?xml version="1.0" encoding="UTF-8"?>
<svg width="100px" height="50px" viewBox="0 0 100 50" version="1.1" xmlns="http://www.w3.org/2000/svg" xmlns:xlink="http://www.w3.org/1999/xlink">
    <!-- Generator: Sketch 59.1 (86144) - https://sketch.com -->
    <title>microsoft</title>
    <desc>Created with Sketch.</desc>
    <g id="Page-1" stroke="none" stroke-width="1" fill="none" fill-rule="evenodd">
        <g id="Artboard" fill-rule="nonzero">
            <g id="microsoft" transform="translate(-0.000000, -0.920000)">
                <g id="Microsoft_logo_(2012)" transform="translate(5.000000, 16.334201)">
                    <path d="M37.3846154,3.83431953 L37.3846154,15.3372781 L35.387574,15.3372781 L35.387574,6.31065089 L35.3609467,6.31065089 L31.7928994,15.3372781 L30.4615385,15.3372781 L26.8136095,6.31065089 L26.7869822,6.31065089 L26.7869822,15.3372781 L24.9497041,15.3372781 L24.9497041,3.83431953 L27.8254438,3.83431953 L31.1272189,12.3550296 L31.1804734,12.3550296 L34.6686391,3.83431953 L37.3846154,3.83431953 Z M39.035503,4.71301775 C39.035503,4.39349112 39.1420118,4.12721893 39.3816568,3.91420118 C39.6213018,3.70118343 39.887574,3.59467456 40.2071006,3.59467456 C40.5532544,3.59467456 40.8461538,3.70118343 41.0591716,3.91420118 C41.2721893,4.12721893 41.4053254,4.39349112 41.4053254,4.71301775 C41.4053254,5.03254438 41.2988166,5.29881657 41.0591716,5.51183432 C40.8195266,5.72485207 40.5532544,5.83136095 40.2071006,5.83136095 C39.8609467,5.83136095 39.5946746,5.72485207 39.3816568,5.51183432 C39.1686391,5.27218935 39.035503,5.00591716 39.035503,4.71301775 Z M41.1923077,7.08284024 L41.1923077,15.3372781 L39.2485207,15.3372781 L39.2485207,7.08284024 L41.1923077,7.08284024 Z M47.0769231,13.9260355 C47.3698225,13.9260355 47.6893491,13.8727811 48.035503,13.7130178 C48.3816568,13.5798817 48.7011834,13.3934911 48.9940828,13.1804734 L48.9940828,14.9911243 C48.6745562,15.1775148 48.3284024,15.3106509 47.9289941,15.3905325 C47.5295858,15.4704142 47.1035503,15.5236686 46.6242604,15.5236686 C45.3994083,15.5236686 44.4142012,15.1508876 43.6686391,14.3786982 C42.8964497,13.6065089 42.5236686,12.6213018 42.5236686,11.4497041 C42.5236686,10.1183432 42.9230769,9.02662722 43.6952663,8.17455621 C44.4674556,7.32248521 45.5591716,6.8964497 46.9970414,6.8964497 C47.3698225,6.8964497 47.7426036,6.94970414 48.0887574,7.0295858 C48.4615385,7.10946746 48.7544379,7.24260355 48.9674556,7.34911243 L48.9674556,9.21301775 C48.6745562,9 48.3550296,8.81360947 48.0621302,8.70710059 C47.7426036,8.60059172 47.4230769,8.52071006 47.1035503,8.52071006 C46.3313609,8.52071006 45.7189349,8.76035503 45.239645,9.26627219 C44.760355,9.77218935 44.5473373,10.4378698 44.5473373,11.2899408 C44.5473373,12.1153846 44.7869822,12.7810651 45.239645,13.2337278 C45.6923077,13.6863905 46.3047337,13.9260355 47.0769231,13.9260355 Z M54.5059172,6.94970414 C54.6656805,6.94970414 54.7988166,6.94970414 54.9319527,6.97633136 C55.0650888,7.00295858 55.1715976,7.0295858 55.2514793,7.05621302 L55.2514793,9.02662722 C55.1449704,8.94674556 55.0118343,8.86686391 54.7988166,8.81360947 C54.5857988,8.76035503 54.3727811,8.70710059 54.0798817,8.70710059 C53.6005917,8.70710059 53.2011834,8.92011834 52.8816568,9.31952663 C52.5621302,9.71893491 52.3757396,10.3313609 52.3757396,11.183432 L52.3757396,15.3372781 L50.4319527,15.3372781 L50.4319527,7.08284024 L52.3757396,7.08284024 L52.3757396,8.38757396 L52.4023669,8.38757396 C52.5887574,7.93491124 52.8550296,7.5887574 53.2011834,7.32248521 C53.5739645,7.08284024 54,6.94970414 54.5059172,6.94970414 Z M55.3579882,11.3431953 C55.3579882,9.9852071 55.7573964,8.89349112 56.5029586,8.09467456 C57.2751479,7.29585799 58.3402367,6.8964497 59.6982249,6.8964497 C60.9763314,6.8964497 61.9881657,7.26923077 62.7071006,8.04142012 C63.4260355,8.81360947 63.7988166,9.85207101 63.7988166,11.1568047 C63.7988166,12.4881657 63.3994083,13.5532544 62.6538462,14.352071 C61.8816568,15.1508876 60.8431953,15.5502959 59.5118343,15.5502959 C58.2337278,15.5502959 57.2218935,15.1775148 56.4763314,14.4319527 C55.7307692,13.6597633 55.3579882,12.6213018 55.3579882,11.3431953 Z M57.3816568,11.2633136 C57.3816568,12.1153846 57.5680473,12.7810651 57.9674556,13.2337278 C58.3668639,13.6863905 58.9260355,13.9260355 59.6449704,13.9260355 C60.3372781,13.9260355 60.8964497,13.7130178 61.2692308,13.2337278 C61.6420118,12.7810651 61.8284024,12.1153846 61.8284024,11.2100592 C61.8284024,10.3313609 61.6420118,9.66568047 61.2692308,9.18639053 C60.8964497,8.73372781 60.3372781,8.49408284 59.6715976,8.49408284 C58.9526627,8.49408284 58.4201183,8.73372781 58.0207101,9.21301775 C57.5680473,9.71893491 57.3816568,10.3846154 57.3816568,11.2633136 Z M66.7011834,9.26627219 C66.7011834,9.53254438 66.7810651,9.77218935 66.9674556,9.93195266 C67.1538462,10.091716 67.5266272,10.2781065 68.1390533,10.5177515 C68.9112426,10.8372781 69.4704142,11.183432 69.7633136,11.556213 C70.0828402,11.9556213 70.2426036,12.408284 70.2426036,12.9674556 C70.2426036,13.739645 69.9497041,14.352071 69.3372781,14.8313609 C68.7514793,15.3106509 67.9260355,15.5236686 66.9142012,15.5236686 C66.5680473,15.5236686 66.1952663,15.4704142 65.7692308,15.3905325 C65.3431953,15.3106509 64.9970414,15.204142 64.704142,15.0710059 L64.704142,13.1538462 C65.0502959,13.3934911 65.4497041,13.6065089 65.8491124,13.739645 C66.2485207,13.8727811 66.6213018,13.9526627 66.9674556,13.9526627 C67.3934911,13.9526627 67.739645,13.8994083 67.9260355,13.7662722 C68.1390533,13.6331361 68.2455621,13.4467456 68.2455621,13.1538462 C68.2455621,12.887574 68.1390533,12.6745562 67.9260355,12.4615385 C67.7130178,12.2751479 67.2869822,12.0621302 66.7011834,11.8224852 C65.9822485,11.5295858 65.4763314,11.183432 65.183432,10.8106509 C64.8905325,10.4378698 64.7307692,9.95857988 64.7307692,9.37278107 C64.7307692,8.62721893 65.0236686,8.0147929 65.6094675,7.53550296 C66.1952663,7.05621302 66.9674556,6.81656805 67.8994083,6.81656805 C68.1923077,6.81656805 68.5118343,6.84319527 68.8579882,6.92307692 C69.204142,7.00295858 69.5236686,7.08284024 69.7633136,7.16272189 L69.7633136,9.05325444 C69.4970414,8.89349112 69.204142,8.73372781 68.8579882,8.60059172 C68.5118343,8.46745562 68.1656805,8.41420118 67.8461538,8.41420118 C67.4733728,8.41420118 67.1804734,8.49408284 66.9940828,8.62721893 C66.8076923,8.81360947 66.7011834,9 66.7011834,9.26627219 Z M71.0680473,11.3431953 C71.0680473,9.9852071 71.4674556,8.89349112 72.2130178,8.09467456 C72.9852071,7.29585799 74.0502959,6.8964497 75.408284,6.8964497 C76.6863905,6.8964497 77.6982249,7.26923077 78.4171598,8.04142012 C79.1360947,8.81360947 79.5088757,9.85207101 79.5088757,11.1568047 C79.5088757,12.4881657 79.1094675,13.5532544 78.3639053,14.352071 C77.591716,15.1508876 76.5532544,15.5502959 75.2218935,15.5502959 C73.943787,15.5502959 72.9319527,15.1775148 72.1863905,14.4319527 C71.4674556,13.6597633 71.0680473,12.6213018 71.0680473,11.3431953 Z M73.091716,11.2633136 C73.091716,12.1153846 73.2781065,12.7810651 73.6775148,13.2337278 C74.0769231,13.6863905 74.6360947,13.9260355 75.3550296,13.9260355 C76.0473373,13.9260355 76.6065089,13.7130178 76.9792899,13.2337278 C77.352071,12.7810651 77.5384615,12.1153846 77.5384615,11.2100592 C77.5384615,10.3313609 77.352071,9.66568047 76.9792899,9.18639053 C76.6065089,8.73372781 76.0473373,8.49408284 75.3816568,8.49408284 C74.6627219,8.49408284 74.1301775,8.73372781 73.7307692,9.21301775 C73.3047337,9.71893491 73.091716,10.3846154 73.091716,11.2633136 Z M85.9792899,8.68047337 L83.0769231,8.68047337 L83.0769231,15.3372781 L81.1065089,15.3372781 L81.1065089,8.68047337 L79.7218935,8.68047337 L79.7218935,7.08284024 L81.1065089,7.08284024 L81.1065089,5.93786982 C81.1065089,5.08579882 81.3994083,4.36686391 81.9585799,3.80769231 C82.5177515,3.24852071 83.2366864,2.98224852 84.1153846,2.98224852 C84.3550296,2.98224852 84.5680473,3.00887574 84.7544379,3.00887574 C84.9408284,3.00887574 85.1005917,3.06213018 85.2337278,3.11538462 L85.2337278,4.79289941 C85.1804734,4.76627219 85.0473373,4.71301775 84.887574,4.65976331 C84.7278107,4.60650888 84.5414201,4.57988166 84.3284024,4.57988166 C83.9289941,4.57988166 83.6094675,4.71301775 83.3964497,4.95266272 C83.183432,5.19230769 83.0769231,5.59171598 83.0769231,6.07100592 L83.0769231,7.05621302 L85.9792899,7.05621302 L85.9792899,5.19230769 L87.9230769,4.60650888 L87.9230769,7.05621302 L89.8934911,7.05621302 L89.8934911,8.65384615 L87.9230769,8.65384615 L87.9230769,12.5147929 C87.9230769,13.0207101 88.0295858,13.3668639 88.1893491,13.5798817 C88.3757396,13.7928994 88.6686391,13.8994083 89.0680473,13.8994083 C89.1745562,13.8994083 89.3076923,13.8727811 89.4674556,13.8195266 C89.6272189,13.7662722 89.760355,13.7130178 89.8668639,13.6331361 L89.8668639,15.2307692 C89.7337278,15.3106509 89.5473373,15.3639053 89.2544379,15.4171598 C88.9615385,15.4704142 88.6952663,15.4970414 88.4023669,15.4970414 C87.5769231,15.4970414 86.964497,15.2840237 86.5650888,14.8579882 C86.1656805,14.4319527 85.9526627,13.7662722 85.9526627,12.887574 L85.9792899,8.68047337 L85.9792899,8.68047337 Z" id="Shape" fill="#737373"></path>
                    <g id="Group">
                        <rect id="Rectangle" fill="#F25022" x="0" y="0" width="9.10650888" height="9.10650888"></rect>
                        <rect id="Rectangle" fill="#7FBA00" x="10.0650888" y="0" width="9.10650888" height="9.10650888"></rect>
                        <rect id="Rectangle" fill="#00A4EF" x="0" y="10.0650888" width="9.10650888" height="9.10650888"></rect>
                        <rect id="Rectangle" fill="#FFB900" x="10.0650888" y="10.0650888" width="9.10650888" height="9.10650888"></rect>
                    </g>
                </g>
            </g>
        </g>
    </g>
</svg>