<svg xmlns="http://www.w3.org/2000/svg" width="100" height="50" fill="none"><path fill="#fff" d="M42.385 19.249V30.75h-1.997v-9.026h-.027l-3.568 9.026h-1.331l-3.648-9.026h-.027v9.026H29.95v-11.5h2.875l3.302 8.52h.053l3.489-8.52 2.716-.001Zm1.65.878c0-.32.107-.586.347-.799.24-.213.506-.32.825-.32.346 0 .64.107.852.32.213.213.346.48.346.8 0 .319-.106.585-.346.798a1.21 1.21 0 0 1-.852.32c-.346 0-.612-.107-.825-.32-.213-.24-.347-.506-.347-.799Zm2.157 2.37v8.254H44.25v-8.254h1.942Zm5.885 6.843c.293 0 .612-.053.959-.213a4.24 4.24 0 0 0 .958-.532v1.81c-.32.187-.666.32-1.065.4-.4.08-.825.133-1.305.133-1.225 0-2.21-.373-2.955-1.145-.773-.772-1.145-1.757-1.145-2.93 0-1.33.4-2.422 1.171-3.274.772-.852 1.864-1.278 3.302-1.278a4.9 4.9 0 0 1 1.092.133 3.6 3.6 0 0 1 .878.32v1.863a3.87 3.87 0 0 0-.905-.506c-.32-.106-.639-.186-.958-.186-.773 0-1.385.24-1.864.745-.48.506-.693 1.172-.693 2.024 0 .826.24 1.491.693 1.944.452.453 1.065.692 1.837.692Zm7.429-6.976a2.12 2.12 0 0 1 .746.107v1.97c-.107-.08-.24-.16-.453-.213-.213-.053-.426-.107-.72-.107-.478 0-.878.213-1.197.613-.32.4-.506 1.012-.506 1.864v4.153h-1.944v-8.254h1.944v1.305h.026c.187-.453.453-.799.8-1.065.372-.24.798-.373 1.304-.373Zm.852 4.393c0-1.358.4-2.45 1.145-3.248.772-.799 1.837-1.198 3.195-1.198 1.278 0 2.29.372 3.01 1.145.718.772 1.09 1.81 1.09 3.115 0 1.331-.399 2.396-1.144 3.195-.772.8-1.81 1.198-3.142 1.198-1.278 0-2.29-.372-3.036-1.118-.745-.772-1.118-1.81-1.118-3.089Zm2.024-.08c0 .853.186 1.518.585 1.97.4.454.959.693 1.678.693.692 0 1.251-.213 1.624-.692.373-.453.56-1.118.56-2.024 0-.878-.187-1.544-.56-2.023-.373-.453-.932-.693-1.597-.693-.72 0-1.252.24-1.651.72-.453.505-.64 1.17-.64 2.05l.001-.001Zm9.32-1.997c0 .267.08.506.265.666.187.16.56.346 1.172.586.772.32 1.331.666 1.624 1.038.32.4.48.852.48 1.412 0 .772-.293 1.384-.906 1.864-.586.479-1.411.692-2.423.692-.346 0-.719-.053-1.145-.133a4.608 4.608 0 0 1-1.065-.32v-1.917c.346.24.746.453 1.145.586.4.133.772.213 1.118.213.426 0 .773-.053.959-.187.213-.133.32-.32.32-.612 0-.266-.107-.48-.32-.692-.213-.187-.639-.4-1.225-.64-.719-.292-1.225-.638-1.518-1.011-.292-.373-.452-.852-.452-1.438 0-.746.293-1.358.878-1.837.586-.48 1.358-.72 2.29-.72.293 0 .613.027.959.107s.666.16.905.24v1.89a5.612 5.612 0 0 0-.905-.452 2.82 2.82 0 0 0-1.012-.187c-.373 0-.666.08-.852.213-.186.187-.293.373-.293.64l.001-.001Zm4.366 2.077c0-1.358.4-2.45 1.145-3.248.772-.799 1.837-1.198 3.195-1.198 1.278 0 2.29.372 3.01 1.145.718.772 1.09 1.81 1.09 3.115 0 1.331-.399 2.396-1.144 3.195-.772.8-1.81 1.198-3.142 1.198-1.278 0-2.29-.372-3.036-1.118-.719-.772-1.118-1.81-1.118-3.089Zm2.024-.08c0 .853.186 1.518.586 1.97.399.454.958.693 1.677.693.692 0 1.252-.213 1.624-.692.373-.453.56-1.118.56-2.024 0-.878-.187-1.544-.56-2.023-.372-.453-.932-.693-1.597-.693-.72 0-1.252.24-1.651.72-.426.505-.64 1.17-.64 2.05l.001-.001Zm12.887-2.582h-2.902v6.656h-1.97v-6.656h-1.385v-1.598h1.385v-1.145c0-.852.292-1.57.852-2.13.559-.56 1.278-.826 2.156-.826.24 0 .453.027.64.027.186 0 .346.053.479.107v1.677a3.24 3.24 0 0 0-.346-.133 1.772 1.772 0 0 0-.56-.08c-.399 0-.719.133-.932.373-.213.24-.32.639-.32 1.118v.985h2.903v-1.863l1.944-.586v2.45h1.97v1.597h-1.97v3.861c0 .506.107.852.266 1.065.187.213.48.32.879.32.107 0 .24-.027.4-.08a1.41 1.41 0 0 0 .399-.187v1.598c-.133.08-.32.133-.613.186-.292.054-.559.08-.852.08-.825 0-1.438-.213-1.837-.639-.4-.426-.612-1.092-.612-1.97l.026-4.207Z"/><path fill="#fff" fill-rule="evenodd" d="M14.107 15.414H5v9.107h9.107v-9.107Zm10.065 0h-9.107v9.107h9.107v-9.107ZM5 25.48h9.107v9.106H5V25.48Zm19.172 0h-9.107v9.106h9.107V25.48Z" clip-rule="evenodd"/></svg>