<svg xmlns="http://www.w3.org/2000/svg" width="100" height="50" fill="none"><path fill="#fff" d="M44.588 38.633h-3.27V10.709h5.052l3.382 23.026c-.508-5.477-1.17-14.312-1.17-18.959V10.71h3.27v27.915h-4.63l-3.107-22.36c.275 5.002.465 10.99.465 14.347v8.022l.008-.001ZM57.463 26.51v8.6h.62c1.17 0 1.515-.665 1.515-1.99v-4.733c0-1.367-.43-1.877-1.67-1.877h-.465Zm0-12.279v9.224h.465c1.326 0 1.67-.51 1.67-2.033v-5.313c0-1.29-.387-1.878-1.515-1.878h-.62Zm-3.735 24.402V10.709h4.63c3.073 0 4.975 1.68 4.975 5.59v4.11c0 2.544-.775 3.834-1.868 4.5 1.085.7 1.868 1.956 1.868 4.101v4.067c0 3.834-2.022 5.556-4.974 5.556h-4.631Zm14.425-8.411h1.98l-.31-5.123c-.121-2.033-.431-8.48-.663-11.967h-.155L68.463 25.1l-.31 5.122Zm2.177 3.167h-2.332l-.31 5.235h-3.77l2.72-27.915h5.293l2.642 27.924H70.65l-.32-5.244Z"/><path fill="#fff" fill-rule="evenodd" d="M34.854 10h-6.833C26.35 10 25 11.367 25 13.037v23.268c0 1.679 1.351 3.046 3.02 3.046h6.834c1.67 0 3.03-1.367 3.03-3.046V13.037C37.875 11.358 36.515 10 34.854 10Zm-1.695 5.373.008.096c.106.062.185.12.266.178.076.056.154.113.259.176.56.355 1.248.978 1.154 3.141.073.22.127.543.179.854.058.348.113.682.191.842l.012.024c.285.566.471.936.556 1.482 0 0 .086.848.19.909.435.098.448.157.462.22.004.02.009.042.028.065.028.037.083.062.144.09.126.056.277.125.277.334.112.156.198.32.267.485V13.037a2.312 2.312 0 0 0-2.306-2.319h-2.212c.353.13.55.277.671.51.284.027.628.667.095 1.619.211.141.08.348-.074.592l-.046.074-.025.046c-.046.086-.104.195-.234.188-.198.424-.439.839-.628.865-.052.07-.095.25-.009.337.284.104.611.277.775.424ZM37.16 25.8l-.008.02v-.02h.008Zm-.008.02a2.062 2.062 0 0 1-3.813.01 2.057 2.057 0 0 1-.154-.791c0-.978.671-1.791 1.575-2.016-.167-.415-.46-1.01-.671-1.44-.093-.19-.171-.35-.216-.447-.138-.311-.482-2.283-.55-2.674-.018-.086-.887.511-.887.546-.052.052-.654 1.635-.68 1.722-.009.051-.017.268-.017.268s.292.034.465.554c.172.519.68 2.414.68 2.414s-.138.147-.147.138c.38 1.273.461 2.125.52 2.74.041.444.072.765.194 1.033.196.48.314.672.43.86.103.167.204.33.354.689.129.32.267 1.184.377 1.874.08.504.146.915.183.956.352.45.541.795.541 1.046 0 .087-.036.234-.079.408-.08.328-.183.749-.111 1.037.025.094.046.228.067.367.038.245.077.505.149.577 0 0 .112.216.052.311l-.002.003c-.016.035-.04.085-.033.118.03.102.068.215.11.335.236.687.557 1.617-.308 2.14h.026a2.31 2.31 0 0 0 1.945-2.293V25.82Zm-2.755 9.543c-.045.11-.104.253.165.492-.008.47-.057.872-.099 1.216-.095.78-.153 1.26.391 1.554h-6.833c-1.274 0-2.307-1.048-2.307-2.328V13.03a2.314 2.314 0 0 1 2.307-2.321h3.924c-.748.295-.86.623-.887 1.67a.46.46 0 0 1-.061-.002c-.135-.008-.32-.02-.239.53 0 0 .043.425.215.355-.024.166-.04.31-.055.433-.082.717-.09.786-1.081.83l-.06.087c-.098.01-.191.017-.279.024-.949.078-1.327.11-2.217 1.931 0 0-.25.614-.327.874-.038.08-.085.175-.138.281-.278.565-.716 1.453-.861 2.064a1.43 1.43 0 0 1-.043.154c-.047.143-.082.253.035.521.052.12.072.219.087.3.051.263.065.333 1.066.306v.303s-.353.303-.422.484c-.077.182-.275 1.091-.267 1.515.015.64.319 1.224.627 1.816.23.44.46.883.578 1.359l.603.087c.344.778 1.816 2.881 2.117 3.158.043.12.203.258.372.405.102.088.207.179.291.27l.109.11c.343.352 1.296 1.33 2.387 1.958-.003 0 .015.039.043.103.065.144.186.416.258.65-.242.189-.08.474.15.874.17.298.375.659.478 1.09.005.035-.01.072-.027.114Z" clip-rule="evenodd"/></svg>