<?xml version="1.0" encoding="UTF-8" standalone="no"?>
<svg width="100px" height="58px" viewBox="0 0 100 58" version="1.1" xmlns="http://www.w3.org/2000/svg" xmlns:xlink="http://www.w3.org/1999/xlink" xmlns:sketch="http://www.bohemiancoding.com/sketch/ns">
    <!-- Generator: Sketch 3.5.2 (25235) - http://www.bohemiancoding.com/sketch -->
    <title>Desktop</title>
    <desc>Created with Sketch.</desc>
    <defs></defs>
    <g id="Page-1" stroke="none" stroke-width="1" fill="none" fill-rule="evenodd" sketch:type="MSPage">
        <g id="Desktop" sketch:type="MSLayerGroup">
            <path d="M90.7696188,52.1504142 L90.7696188,3.0963373 C90.7696188,1.39251364 89.3747105,0 87.6720842,0 L12.211734,0 C10.5091077,0 9.113002,1.39251364 9.113002,3.0963373 L9.113002,52.1504142 C9.113002,52.9885565 9.45065363,53.7500687 9.9966435,54.308032 L89.888372,54.308032 C90.4331645,53.7500687 90.7696188,52.9885565 90.7696188,52.1504142 Z M11.5555883,3.13944176 L87.8600675,3.13944176 L87.8600675,50.8285439 L11.5555883,50.8285439 L11.5555883,3.13944176 Z" id="Bezel" fill="#343433" sketch:type="MSShapeGroup"></path>
            <path d="M89.888372,54.308032 L0,54.308032 L0,56.1100381 L99.9269226,56.1100381 L99.9269226,54.308032 L89.888372,54.308032" id="Front" fill="#CBCCCB" sketch:type="MSShapeGroup"></path>
            <path d="M50.4118675,1.70981039 C50.4118675,1.47632788 50.2238841,1.28475248 49.9880069,1.28475248 C49.7521297,1.28475248 49.5617517,1.47632788 49.5617517,1.70981039 C49.5617517,1.94568759 49.7521297,2.13606564 49.9880069,2.13606564 C50.2238841,2.13606564 50.4118675,1.94568759 50.4118675,1.70981039" id="Camera" fill="#8A8B8A" sketch:type="MSShapeGroup"></path>
            <path d="M49.9413104,54.308032 L42.7823774,54.308032 C42.7823774,54.308032 42.9859263,55.5269305 44.1042476,55.5269305 L49.7078279,55.5269305 L49.9556786,55.5269305 L55.5568641,55.5269305 C56.6775802,55.5269305 56.8799317,54.308032 56.8799317,54.308032 L49.9413104,54.308032" id="Recess" fill="#B4B5B4" sketch:type="MSShapeGroup"></path>
            <path d="M0,56.1100381 C0,56.1100381 0.607054528,57.4331056 5.78198485,57.4331056 L49.7078279,57.4331056 L50.2190947,57.4331056 L94.1473325,57.4331056 C99.3222628,57.4331056 99.9269226,56.1100381 99.9269226,56.1100381" id="Base" fill="#E4E5E3" sketch:type="MSShapeGroup"></path>
        </g>
    </g>
</svg>