<?xml version="1.0" encoding="UTF-8" standalone="no"?>
<svg width="100px" height="100px" viewBox="0 0 100 100" version="1.1" xmlns="http://www.w3.org/2000/svg" xmlns:xlink="http://www.w3.org/1999/xlink" xmlns:sketch="http://www.bohemiancoding.com/sketch/ns">
    <!-- Generator: Sketch 3.5.2 (25235) - http://www.bohemiancoding.com/sketch -->
    <title>Link</title>
    <desc>Created with Sketch.</desc>
    <defs></defs>
    <g id="Page-1" stroke="none" stroke-width="1" fill="none" fill-rule="evenodd" sketch:type="MSPage">
        <g id="Link" sketch:type="MSLayerGroup" fill="#FFFFFF">
            <path d="M63.0861493,36.78188 C60.9065658,34.6441152 58.4300708,32.9905861 55.7911941,31.821229 L48.1543233,39.4580997 C47.5032694,40.1091537 46.9740279,40.8357048 46.5665993,41.6095164 C49.5125405,41.7941956 52.4074014,42.9876266 54.6903649,45.1899564 C59.56555,50.2291536 59.5157196,58.2598435 54.5398989,63.2356643 L33.532694,84.2428692 C28.5623478,89.2132154 20.5403541,89.2682373 15.5004642,84.406355 C10.625279,79.3671578 10.6751094,71.3364679 15.6509301,66.3606471 L27.2012944,54.8102828 C25.4591276,49.5535052 25.277433,43.893335 26.6564561,38.5525838 L7.24966146,57.9593784 C-2.36975289,67.5787928 -2.41455701,83.1367033 7.10467971,92.8144314 C16.786336,102.31033 32.3263963,102.251704 41.9339627,92.6441379 L62.9411676,71.636933 C72.5605819,62.0175186 72.6053861,46.4596081 63.0861493,36.78188 L63.0861493,36.78188 L63.0861493,36.78188 Z" id="Path" sketch:type="MSShapeGroup"></path>
            <path d="M36.80765,63.1114611 C39.0279068,65.2891187 41.5562598,66.9642994 44.2505064,68.1370705 L51.8456767,60.5419003 C52.5240833,59.8634936 53.0702272,59.1031127 53.4841076,58.292705 C50.4842132,58.1411921 47.5269182,56.9448036 45.2034345,54.7033847 C45.1485707,54.6466752 45.0943307,54.5895868 45.0407144,54.5321283 C45.0485415,54.5243108 45.064277,54.5085656 45.0876915,54.4851227 L45.0876915,54.4851227 C45.0720116,54.5008027 45.056348,54.5164663 45.0407007,54.5321136 C40.3299949,49.4838095 40.4340808,41.5774965 45.3539004,36.6576768 L66.3611054,15.6504719 C71.3314516,10.6801257 79.3534453,10.6251038 84.3933352,15.4869861 C84.4481989,15.5436956 84.5024389,15.600784 84.5560552,15.6582426 C84.5482282,15.66606 84.5324927,15.6818053 84.5090781,15.7052481 L84.5090781,15.7052481 C84.5247581,15.6895681 84.5404217,15.6739045 84.5560689,15.6582572 C89.2667747,20.7065613 89.1626889,28.6128743 84.2428692,33.532694 L72.7453297,45.0302335 C74.5055324,50.2386756 74.7290166,55.8515744 73.4155426,61.1625579 L92.6441379,41.9339627 C102.263552,32.3145483 102.308356,16.7566378 92.7891196,7.07890969 C83.1074633,-2.41698865 67.5674031,-2.35836319 57.9598367,7.24920322 L36.9526318,28.2564081 C27.3332174,37.8758225 27.2884133,53.433733 36.80765,63.1114611 L36.80765,63.1114611 L36.80765,63.1114611 Z" id="Path" sketch:type="MSShapeGroup"></path>
        </g>
    </g>
</svg>