<?xml version="1.0" encoding="UTF-8" standalone="no"?>
<svg width="100px" height="100px" viewBox="0 0 100 100" version="1.1" xmlns="http://www.w3.org/2000/svg" xmlns:xlink="http://www.w3.org/1999/xlink" xmlns:sketch="http://www.bohemiancoding.com/sketch/ns">
    <!-- Generator: Sketch 3.5.2 (25235) - http://www.bohemiancoding.com/sketch -->
    <title>Broken Link</title>
    <desc>Created with Sketch.</desc>
    <defs></defs>
    <g id="Page-1" stroke="none" stroke-width="1" fill="none" fill-rule="evenodd" sketch:type="MSPage">
        <g id="Broken-Link" sketch:type="MSLayerGroup" fill="#FFFFFF">
            <path d="M33.6948573,48.2782969 L25.3772317,39.9606712 L8.04418628,57.2937166 C-1.52969877,66.8676017 -1.5254907,82.3821431 8.04618312,91.9538169 C17.6199615,101.527595 33.1357124,101.526385 42.7062834,91.9558137 L60.0393288,74.6227683 L51.7204255,66.303865 L34.3873801,83.6369104 C29.4105441,88.6137464 21.3437929,88.61362 16.3650864,83.6349136 C11.3862106,78.6560378 11.3852132,70.5904963 16.3630896,65.6126199 L33.6948573,48.2782969 L33.6948573,48.2782969 Z" id="Link" sketch:type="MSShapeGroup"></path>
            <path d="M48.6122385,33.3609157 L40.2946128,25.0432901 L57.6276582,7.71024468 C67.2015433,-1.86364037 82.7160847,-1.8594323 92.2877585,7.71224152 C101.861537,17.2860199 101.860326,32.8017708 92.2897553,42.3723418 L74.9567099,59.7053872 L66.6378066,51.3864839 L83.970852,34.0534385 C88.947688,29.0766025 88.9475616,21.0098513 83.9688552,16.0311448 C78.9899794,11.052269 70.9244379,11.0512716 65.9465615,16.029148 L48.6122385,33.3609157 L48.6122385,33.3609157 Z" id="Link" sketch:type="MSShapeGroup"></path>
            <rect id="Spark" sketch:type="MSShapeGroup" x="30.8823529" y="5.88235294" width="4.41176471" height="17.6470588" rx="8"></rect>
            <path d="M8.08168413,35.2941176 C6.86702705,35.2941176 5.88235294,34.3150041 5.88235294,33.0882353 L5.88235294,33.0882353 C5.88235294,31.8699601 6.88169774,30.8823529 8.08168413,30.8823529 L21.3300806,30.8823529 C22.5447377,30.8823529 23.5294118,31.8614665 23.5294118,33.0882353 L23.5294118,33.0882353 C23.5294118,34.3065105 22.530067,35.2941176 21.3300806,35.2941176 L8.08168413,35.2941176 L8.08168413,35.2941176 Z" id="Spark" sketch:type="MSShapeGroup"></path>
            <path d="M13.8983948,16.4394566 C13.0395025,15.5805644 13.0355706,14.1919568 13.9030271,13.3245003 L13.9030271,13.3245003 C14.7644778,12.4630496 16.169465,12.4713494 17.0179835,13.3198679 L26.3860145,22.6878988 C27.2449067,23.5467911 27.2488386,24.9353987 26.3813821,25.8028552 L26.3813821,25.8028552 C25.5199315,26.6643059 24.1149442,26.6560061 23.2664257,25.8074876 L13.8983948,16.4394566 L13.8983948,16.4394566 Z" id="Spark" sketch:type="MSShapeGroup"></path>
            <path d="M69.1176471,92.6434216 C69.1176471,93.4576139 68.466676,94.1176471 67.6485933,94.1176471 L66.1749361,94.1176471 C65.3636001,94.1176471 64.7058824,93.46865 64.7058824,92.6434216 L64.7058824,77.9448137 C64.7058824,77.1306214 65.3568534,76.4705882 66.1749361,76.4705882 L67.6485933,76.4705882 C68.4599293,76.4705882 69.1176471,77.1195853 69.1176471,77.9448137 L69.1176471,92.6434216 L69.1176471,92.6434216 Z" id="Spark" sketch:type="MSShapeGroup"></path>
            <path d="M91.9183159,64.7058824 C93.1329729,64.7058824 94.1176471,65.6849959 94.1176471,66.9117647 L94.1176471,66.9117647 C94.1176471,68.1300399 93.1183023,69.1176471 91.9183159,69.1176471 L78.6699194,69.1176471 C77.4552623,69.1176471 76.4705882,68.1385335 76.4705882,66.9117647 L76.4705882,66.9117647 C76.4705882,65.6934895 77.469933,64.7058824 78.6699194,64.7058824 L91.9183159,64.7058824 L91.9183159,64.7058824 L91.9183159,64.7058824 Z" id="Spark" sketch:type="MSShapeGroup"></path>
            <path d="M85.2095439,83.5605434 C86.0684361,84.4194356 86.072368,85.8080432 85.2049115,86.6754997 L85.2049115,86.6754997 C84.3434609,87.5369504 82.9384737,87.5286506 82.0899551,86.6801321 L72.7219242,77.3121012 C71.8630319,76.4532089 71.8591,75.0646013 72.7265565,74.1971448 L72.7265565,74.1971448 C73.5880072,73.3356941 74.9929944,73.3439939 75.8415129,74.1925124 L85.2095439,83.5605434 L85.2095439,83.5605434 L85.2095439,83.5605434 Z" id="Spark" sketch:type="MSShapeGroup"></path>
        </g>
    </g>
</svg>