<?xml version="1.0" encoding="UTF-8" standalone="no"?>
<svg width="100px" height="61px" viewBox="0 0 100 61" version="1.1" xmlns="http://www.w3.org/2000/svg" xmlns:xlink="http://www.w3.org/1999/xlink" xmlns:sketch="http://www.bohemiancoding.com/sketch/ns">
    <!-- Generator: Sketch 3.5.2 (25235) - http://www.bohemiancoding.com/sketch -->
    <title>Logo</title>
    <desc>Created with Sketch.</desc>
    <defs></defs>
    <g id="Page-1" stroke="none" stroke-width="1" fill="none" fill-rule="evenodd" sketch:type="MSPage">
        <g id="Logo" sketch:type="MSLayerGroup">
            <path d="M61.1814346,31.3924051 L61.1814346,60.5907173 L0,60.5907173 L0,29.0295359 L0,3.55271368e-15 L100,3.55271368e-15 L100,31.3924051 L61.1814346,31.3924051 Z" id="Background" fill="#000000" sketch:type="MSShapeGroup"></path>
            <g id="Hall" transform="translate(4.894515, 31.308017)" fill="#FFFFFF" sketch:type="MSShapeGroup">
                <path d="M46.7575695,0.0337552743 L46.7575695,24.6413502 L51.618329,24.6413502 L51.618329,0.0337552743 L46.7575695,0.0337552743 Z" id="Path"></path>
                <path d="M40.0324725,0.0337552743 L40.0324725,24.6413502 L44.893232,24.6413502 L44.893232,0.0337552743 L40.0324725,0.0337552743 Z" id="Path"></path>
                <path d="M33.2736202,11.2742616 C31.889654,9.38396624 29.8305822,9.08016878 28.5478818,9.08016878 C26.4550548,9.08016878 24.63227,9.82278481 23.3158143,11.1392405 C21.9318481,12.5232068 20.9867004,14.6835443 20.9867004,17.2151899 C20.9867004,19.2067511 21.5942953,21.164557 23.1807932,22.8523207 C24.8348017,24.6075949 26.6575865,25.1476793 28.817924,25.1476793 C30.0668692,25.1476793 31.9571645,24.8438819 33.2736202,22.8185654 L33.2736202,24.6413502 L38.1343797,24.6413502 L38.1343797,9.58649789 L33.2736202,9.58649789 L33.2736202,11.2742616 Z M29.7630717,13.2658228 C30.6407088,13.2658228 31.7208776,13.6033755 32.4634936,14.3122363 C33.1723544,14.9873418 33.5774177,16 33.5774177,17.0801688 C33.5774177,18.3628692 33.0373333,19.3080169 32.3959831,19.9156118 C31.7546329,20.556962 30.8432405,20.9620253 29.8643375,20.9620253 C28.7166582,20.9620253 27.6702447,20.4894515 26.9951392,19.7805907 C26.5563206,19.3080169 25.982481,18.4303797 25.982481,17.0801688 C25.982481,15.7299578 26.5900759,14.8523207 27.096405,14.3459916 C27.7377552,13.7046414 28.7166582,13.2658228 29.7630717,13.2658228 Z" id="Path"></path>
                <path d="M5.21518987,2.12658228 L0.0168776371,2.12658228 L0.0168776371,24.6413502 L5.21518987,24.6413502 L5.21518987,15.0886076 L14.1940928,15.0886076 L14.1940928,24.6413502 L19.3924051,24.6413502 L19.3924051,2.12658228 L14.1940928,2.12658228 L14.1940928,10.7004219 L5.21518987,10.7004219 L5.21518987,2.12658228 Z" id="Path"></path>
            </g>
            <g id="Steven" transform="translate(3.544304, 3.628692)" fill="#FFFFFF" sketch:type="MSShapeGroup">
                <path d="M76.4102952,23.0379747 L81.2710547,23.0379747 L81.2710547,15.3080169 C81.2710547,14.3291139 81.4060758,13.2489451 82.2162024,12.4388186 C82.5875104,12.0337553 83.2288606,11.628692 84.2415188,11.628692 C85.1191559,11.628692 85.7267509,11.9324895 86.0980589,12.3037975 C86.8744302,13.0801688 86.9081855,14.3291139 86.9081855,15.3080169 L86.9081855,23.0379747 L91.768945,23.0379747 L91.768945,13.5189873 C91.768945,12.3037975 91.6676792,10.5147679 90.2499576,9.09704641 C88.9672572,7.81434599 87.2457382,7.57805907 85.9292825,7.57805907 C84.511561,7.57805907 82.7562867,7.88185654 81.2710547,9.7721519 L81.2710547,7.98312236 L76.4102952,7.98312236 L76.4102952,23.0379747 Z" id="Path"></path>
                <path d="M75.0522868,15.8481013 C75.0522868,13.9915612 74.714734,11.628692 72.9257045,9.73839662 C71.0691644,7.78059072 68.6387847,7.47679325 66.951021,7.47679325 C65.2632572,7.47679325 63.0016539,7.81434599 61.1788691,9.6371308 C59.6598817,11.1898734 58.8835104,13.4177215 58.8835104,15.5780591 C58.8835104,18.0759494 59.8286581,20.0675105 61.1451138,21.3839662 C62.900388,23.1392405 64.8919492,23.5443038 67.1535526,23.5443038 C68.8413163,23.5443038 70.4615695,23.3080169 71.9130463,22.4303797 C72.7906834,21.8902954 74.1408944,20.7763713 74.8159999,18.649789 L70.2252826,18.1772152 C69.8202193,19.021097 69.2463796,19.3924051 69.1788691,19.4261603 C68.6725399,19.7299578 67.9299239,19.8649789 67.2210632,19.8649789 C66.4784471,19.8649789 65.4657889,19.7299578 64.7231729,18.9198312 C64.1155779,18.2447257 63.8117805,17.164557 63.8117805,16.3544304 L75.0522868,16.3544304 L75.0522868,15.8481013 Z M63.9805568,13.4514768 C64.1155779,12.7763713 64.4531307,12.2362869 64.8244387,11.8312236 C65.2970125,11.3586498 66.0396286,10.8523207 67.2885737,10.8523207 C68.2674767,10.8523207 69.043848,11.1898734 69.5839324,11.6962025 C70.2927931,12.371308 70.52908,13.3164557 70.5628353,13.4514768 L63.9805568,13.4514768 Z" id="Path"></path>
                <path d="M41.8124218,7.98312236 L49.4411138,23.0379747 L52.4790885,23.0379747 L60.1077805,7.98312236 L54.7744472,7.98312236 L50.9601012,16.0506329 L47.1457552,7.98312236 L41.8124218,7.98312236 Z" id="Path"></path>
                <path d="M42.9523037,15.8481013 C42.9523037,13.9915612 42.614751,11.628692 40.8257215,9.73839662 C38.9691814,7.78059072 36.5388016,7.47679325 34.8510379,7.47679325 C33.1632742,7.47679325 30.9016708,7.81434599 29.078886,9.6371308 C27.5598987,11.1898734 26.7835274,13.4177215 26.7835274,15.5780591 C26.7835274,18.0759494 27.728675,20.0675105 29.0451307,21.3839662 C30.800405,23.1392405 32.7919662,23.5443038 35.0535696,23.5443038 C36.7413333,23.5443038 38.3615864,23.3080169 39.8130632,22.4303797 C40.6907004,21.8902954 42.0409113,20.7763713 42.7160168,18.649789 L38.1252995,18.1772152 C37.7202362,19.021097 37.1463966,19.3924051 37.078886,19.4261603 C36.5725569,19.7299578 35.8299409,19.8649789 35.1210801,19.8649789 C34.3784641,19.8649789 33.3658058,19.7299578 32.6231898,18.9198312 C32.0155949,18.2447257 31.7117974,17.164557 31.7117974,16.3544304 L42.9523037,16.3544304 L42.9523037,15.8481013 Z M31.8805738,13.4514768 C32.0155949,12.7763713 32.3531476,12.2362869 32.7244556,11.8312236 C33.1970295,11.3586498 33.9396455,10.8523207 35.1885906,10.8523207 C36.1674936,10.8523207 36.9438649,11.1898734 37.4839493,11.6962025 C38.1928101,12.371308 38.429097,13.3164557 38.4628523,13.4514768 L31.8805738,13.4514768 Z" id="Path"></path>
                <path d="M26.1850126,11.8987342 L26.1850126,7.98312236 L23.1807932,7.98312236 L23.1807932,3.12236287 L18.3200337,3.12236287 L18.3200337,7.98312236 L16.63227,7.98312236 L16.63227,11.8987342 L18.3200337,11.8987342 L18.3200337,23.0379747 L23.1807932,23.0379747 L23.1807932,11.8987342 L26.1850126,11.8987342 Z" id="Path"></path>
                <path d="M15.3080169,2.24472574 C12.6751055,0.286919831 10.1772152,0.0168776371 8.62447257,0.0168776371 C6.53164557,0.0168776371 4.64135021,0.455696203 3.05485232,2.07594937 C1.70464135,3.45991561 1.09704641,5.14767932 1.09704641,7.13924051 C1.09704641,8.21940928 1.26582278,9.80590717 2.44725738,11.0548523 C3.32489451,12 4.54008439,12.4725738 5.58649789,12.8438819 L7.44303797,13.4852321 C8.08438819,13.721519 9.46835443,14.2278481 10.0759494,14.7341772 C10.5485232,15.1392405 10.8523207,15.6118143 10.8523207,16.3544304 C10.8523207,17.1983122 10.4810127,17.8059072 10.0421941,18.1772152 C9.29957806,18.8185654 8.35443038,18.9535865 7.67932489,18.9535865 C6.63291139,18.9535865 5.72151899,18.6835443 4.84388186,18.1434599 C4.23628692,17.7721519 3.32489451,16.9957806 2.75105485,16.4219409 L0.0506329114,20.1350211 C0.894514768,20.978903 2.21097046,22.0253165 3.35864979,22.5991561 C4.77637131,23.3080169 6.19409283,23.5443038 7.81434599,23.5443038 C9.29957806,23.5443038 12.2025316,23.3417722 14.1940928,21.2489451 C15.3755274,20.0337553 16.185654,18.0084388 16.185654,15.6793249 C16.185654,14.3628692 15.8481013,12.742616 14.5316456,11.4936709 C13.6540084,10.649789 12.4388186,10.1434599 11.4599156,9.7721519 L9.7721519,9.13080169 C8.25316456,8.55696203 7.47679325,8.35443038 6.93670886,7.84810127 C6.59915612,7.5443038 6.43037975,7.13924051 6.43037975,6.59915612 C6.43037975,6.02531646 6.66666667,5.51898734 7.00421941,5.1814346 C7.61181435,4.50632911 8.48945148,4.40506329 9.19831224,4.40506329 C9.83966245,4.40506329 11.2911392,4.50632911 12.978903,6.02531646 L15.3080169,2.24472574 Z" id="Path"></path>
            </g>
        </g>
    </g>
</svg>