<?xml version="1.0" encoding="UTF-8" standalone="no"?>
<svg width="100px" height="209px" viewBox="0 0 100 209" version="1.1" xmlns="http://www.w3.org/2000/svg" xmlns:xlink="http://www.w3.org/1999/xlink" xmlns:sketch="http://www.bohemiancoding.com/sketch/ns">
    <!-- Generator: Sketch 3.5.2 (25235) - http://www.bohemiancoding.com/sketch -->
    <title>Mobile</title>
    <desc>Created with Sketch.</desc>
    <defs></defs>
    <g id="Page-1" stroke="none" stroke-width="1" fill="none" fill-rule="evenodd" sketch:type="MSPage">
        <g id="Mobile" sketch:type="MSLayerGroup">
            <path d="M15.6056966,208.626904 C7.02237263,208.626904 0,201.621827 0,193.059645 L0,15.7741117 C0,7.21192893 7.02237263,0.206852792 15.6056966,0.206852792 L83.9402519,0.206852792 C92.5235759,0.206852792 99.5459485,7.21192893 99.5459485,15.7741117 L99.5459485,193.059645 C99.5459485,201.621827 92.5235759,208.626904 83.9402519,208.626904 L15.6056966,208.626904" id="Frame" fill="#F2F2F1" sketch:type="MSShapeGroup"></path>
            <path d="M7.20174845,29.6700508 L92.3251175,29.6700508 L92.3251175,180.199239 L7.20174845,180.199239 L7.20174845,29.6700508 Z" id="Screen" fill="#4D4D4C" sketch:type="MSShapeGroup"></path>
            <path d="M49.7672495,203.015228 C54.0417372,203.015228 57.5071254,199.550761 57.5071254,195.286802 C57.5071254,191.030457 54.0417372,187.569797 49.7672495,187.569797 C45.4927618,187.569797 42.0350066,191.030457 42.0350066,195.286802 C42.0350066,199.550761 45.4927618,203.015228 49.7672495,203.015228 L49.7672495,203.015228 Z" id="Button" stroke="#777776" stroke-width="0.18" sketch:type="MSShapeGroup"></path>
            <path d="M56.6407783,19.8515228 C57.4880429,19.8515228 58.1673811,19.2271574 58.1673811,18.4467005 C58.1673811,17.6700508 57.4880429,17.0456853 56.6407783,17.0456853 L42.8899041,17.0456853 C42.0464561,17.0456853 41.3633014,17.6700508 41.3633014,18.4467005 C41.3633014,19.2271574 42.0464561,19.8515228 42.8899041,19.8515228 L56.6407783,19.8515228" id="Speaker" fill="#E4E5E3" sketch:type="MSShapeGroup"></path>
            <path d="M49.7748825,12.4847716 C50.8358714,12.4847716 51.706035,11.6243655 51.706035,10.5507614 C51.706035,9.48857868 50.8358714,8.62817259 49.7748825,8.62817259 C48.6986276,8.62817259 47.8322805,9.48857868 47.8322805,10.5507614 C47.8322805,11.6243655 48.6986276,12.4847716 49.7748825,12.4847716" id="Camera" fill="#E4E5E3" sketch:type="MSShapeGroup"></path>
        </g>
    </g>
</svg>