<?xml version="1.0" encoding="UTF-8" standalone="no"?>
<svg width="1096px" height="741px" viewBox="0 0 1096 741" version="1.1" xmlns="http://www.w3.org/2000/svg" xmlns:xlink="http://www.w3.org/1999/xlink" xmlns:sketch="http://www.bohemiancoding.com/sketch/ns">
    <!-- Generator: Sketch 3.5.1 (25234) - http://www.bohemiancoding.com/sketch -->
    <title>iPad</title>
    <desc>Created with Sketch.</desc>
    <defs>
        <path id="path-1" d="M0,0.878347107 L743.689587,0.878347107 L743.689587,1100 L0,1100 L0,0.878347107 Z"></path>
    </defs>
    <g id="Desktop" stroke="none" stroke-width="1" fill="none" fill-rule="evenodd" sketch:type="MSPage">
        <g id="Home" sketch:type="MSArtboardGroup" transform="translate(-173.000000, -1864.000000)">
            <g id="Kindeo" sketch:type="MSLayerGroup" transform="translate(0.000000, 1524.000000)">
                <g id="iPad" transform="translate(720.272727, 710.000000) rotate(-90.000000) translate(-720.272727, -710.000000) translate(348.000000, 160.000000)">
                    <path d="M741.595636,56.2989091 C741.595636,26.9633719 717.604562,2.97229752 688.269025,2.97229752 L55.4306777,2.97229752 C26.0951405,2.97229752 2.10406612,26.9633719 2.10406612,56.2989091 L2.10406612,1044.56932 C2.10406612,1073.90486 26.0951405,1097.89593 55.4306777,1097.89593 L688.269025,1097.89593 C717.604562,1097.89593 741.595636,1073.90486 741.595636,1044.56932 L741.595636,56.2989091 Z" id="Fill-1" fill="#FEFEFE" sketch:type="MSShapeGroup"></path>
                    <path d="M741.595636,56.2989091 C741.595636,26.9633719 717.604562,2.97229752 688.269025,2.97229752 L55.4306777,2.97229752 C26.0951405,2.97229752 2.10406612,26.9633719 2.10406612,56.2989091 L2.10406612,1044.56932 C2.10406612,1073.90486 26.0951405,1097.89593 55.4306777,1097.89593 L688.269025,1097.89593 C717.604562,1097.89593 741.595636,1073.90486 741.595636,1044.56932 L741.595636,56.2989091 L741.595636,56.2989091 Z" id="Stroke-3" stroke="#C6C6C5" stroke-width="0.249" sketch:type="MSShapeGroup"></path>
                    <mask id="mask-2" sketch:name="Clip 6" fill="white">
                        <use xlink:href="#path-1"></use>
                    </mask>
                    <g id="Clip-6"></g>
                    <path d="M705.283636,109.993058 L38.3890909,109.993058 L38.3890909,990.86843 L705.283636,990.86843 L705.283636,109.993058 Z" id="Fill-5" fill="#575756" sketch:type="MSShapeGroup" mask="url(#mask-2)"></path>
                    <path d="M379.175306,58.374314 C379.175306,54.092 375.887702,50.6358017 371.841421,50.6358017 C367.79514,50.6358017 364.524397,54.092 364.524397,58.374314 C364.524397,62.6734876 367.79514,66.0959669 371.841421,66.0959669 C375.887702,66.0959669 379.175306,62.6734876 379.175306,58.374314" id="Fill-7" fill="#9C9C9C" sketch:type="MSShapeGroup" mask="url(#mask-2)"></path>
                    <path d="M399.895636,1047.47084 C399.895636,1031.97696 387.335306,1019.45035 371.841421,1019.45035 C356.347537,1019.45035 343.787207,1031.97696 343.787207,1047.47084 C343.787207,1063.01531 356.347537,1075.55878 371.841421,1075.55878 C387.335306,1075.55878 399.895636,1063.01531 399.895636,1047.47084" id="Fill-8" fill="#ECECEC" sketch:type="MSShapeGroup" mask="url(#mask-2)"></path>
                </g>
            </g>
        </g>
    </g>
</svg>