<?xml version="1.0" encoding="UTF-8" standalone="no"?>
<svg width="100px" height="68px" viewBox="0 0 100 68" version="1.1" xmlns="http://www.w3.org/2000/svg" xmlns:xlink="http://www.w3.org/1999/xlink" xmlns:sketch="http://www.bohemiancoding.com/sketch/ns">
    <!-- Generator: Sketch 3.5.2 (25235) - http://www.bohemiancoding.com/sketch -->
    <title>Tablet</title>
    <desc>Created with Sketch.</desc>
    <defs></defs>
    <g id="Page-1" stroke="none" stroke-width="1" fill="none" fill-rule="evenodd" sketch:type="MSPage">
        <g id="Tablet" sketch:type="MSLayerGroup" transform="translate(49.999416, 33.570583) rotate(-90.000000) translate(-49.999416, -33.570583) translate(15.999416, -16.429417)">
            <path d="M67.3516356,5.11306085 C67.3516356,2.44881053 65.1727689,0.26994374 62.5085185,0.26994374 L5.03420816,0.26994374 C2.36995784,0.26994374 0.191091058,2.44881053 0.191091058,5.11306085 L0.191091058,94.8676731 C0.191091058,97.5319234 2.36995784,99.7107902 5.03420816,99.7107902 L62.5085185,99.7107902 C65.1727689,99.7107902 67.3516356,97.5319234 67.3516356,94.8676731 L67.3516356,5.11306085 Z M64.0537837,9.98955764 L3.48649309,9.98955764 L3.48649309,89.9905638 L64.0537837,89.9905638 L64.0537837,9.98955764 Z" id="Frame" fill="#FEFEFE" sketch:type="MSShapeGroup"></path>
            <path d="M34.4366603,5.3015489 C34.4366603,4.9126296 34.1380806,4.59873804 33.7705978,4.59873804 C33.403115,4.59873804 33.1060664,4.9126296 33.1060664,5.3015489 C33.1060664,5.69199938 33.403115,6.00282858 33.7705978,6.00282858 C34.1380806,6.00282858 34.4366603,5.69199938 34.4366603,5.3015489" id="Camera" fill="#9B9B9B" sketch:type="MSShapeGroup"></path>
            <path d="M33.7705978,92.5863705 C32.3634449,92.5863705 31.222717,93.724036 31.222717,95.1311889 C31.222717,96.5429353 32.3634449,97.682132 33.7705978,97.682132 C35.1777507,97.682132 36.3184785,96.5429353 36.3184785,95.1311889 C36.3184785,93.724036 35.1777507,92.5863705 33.7705978,92.5863705 Z" id="Button" fill="#F2F2F2" sketch:type="MSShapeGroup"></path>
        </g>
    </g>
</svg>