<?xml version="1.0" encoding="UTF-8" standalone="no"?>
<svg width="148px" height="100px" viewBox="0 0 148 100" version="1.1" xmlns="http://www.w3.org/2000/svg" xmlns:xlink="http://www.w3.org/1999/xlink" xmlns:sketch="http://www.bohemiancoding.com/sketch/ns">
    <!-- Generator: Sketch 3.5.2 (25235) - http://www.bohemiancoding.com/sketch -->
    <title>Tablet</title>
    <desc>Created with Sketch.</desc>
    <defs></defs>
    <g id="Page-1" stroke="none" stroke-width="1" fill="none" fill-rule="evenodd" sketch:type="MSPage">
        <g id="Tablet" sketch:type="MSLayerGroup" transform="translate(74.000000, 50.000000) rotate(-90.000000) translate(-74.000000, -50.000000) translate(24.000000, -24.000000)">
            <path d="M99.6768328,7.56705767 C99.6768328,3.62410913 96.4522261,0.399502355 92.5092775,0.399502355 L7.4503599,0.399502355 C3.50741136,0.399502355 0.282804585,3.62410913 0.282804585,7.56705767 L0.282804585,140.399102 C0.282804585,144.342051 3.50741136,147.566658 7.4503599,147.566658 L92.5092775,147.566658 C96.4522261,147.566658 99.6768328,144.342051 99.6768328,140.399102 L99.6768328,7.56705767 Z" id="Frame" fill="#FEFEFE" sketch:type="MSShapeGroup"></path>
            <path d="M99.6768328,7.56705767 C99.6768328,3.62410913 96.4522261,0.399502355 92.5092775,0.399502355 L7.4503599,0.399502355 C3.50741136,0.399502355 0.282804585,3.62410913 0.282804585,7.56705767 L0.282804585,140.399102 C0.282804585,144.342051 3.50741136,147.566658 7.4503599,147.566658 L92.5092775,147.566658 C96.4522261,147.566658 99.6768328,144.342051 99.6768328,140.399102 L99.6768328,7.56705767 L99.6768328,7.56705767 Z" id="Bezel" stroke="#C6C6C5" stroke-width="0.249" sketch:type="MSShapeGroup"></path>
            <path d="M94.7961877,14.7840132 L5.15982405,14.7840132 L5.15982405,133.181241 L94.7961877,133.181241 L94.7961877,14.7840132 Z" id="Screen" fill="#575756" sketch:type="MSShapeGroup"></path>
            <path d="M50.9644228,7.84600995 C50.9644228,7.27043011 50.5225407,6.80588732 49.9786857,6.80588732 C49.4348307,6.80588732 48.9952146,7.27043011 48.9952146,7.84600995 C48.9952146,8.42385586 49.4348307,8.88386652 49.9786857,8.88386652 C50.5225407,8.88386652 50.9644228,8.42385586 50.9644228,7.84600995" id="Camera" fill="#9C9C9C" sketch:type="MSShapeGroup"></path>
            <path d="M53.7494135,140.789092 C53.7494135,138.70658 52.061197,137.022896 49.9786857,137.022896 C47.8961744,137.022896 46.2079579,138.70658 46.2079579,140.789092 C46.2079579,142.878401 47.8961744,144.564352 49.9786857,144.564352 C52.061197,144.564352 53.7494135,142.878401 53.7494135,140.789092" id="Button" fill="#ECECEC" sketch:type="MSShapeGroup"></path>
        </g>
    </g>
</svg>