<svg fill="currentColor" width="14" height="15" xmlns="http://www.w3.org/2000/svg"><path d="M4.717 6.759 3.553 5.594 1.126 8.021a3.43 3.43 0 1 0 4.853 4.853l2.427-2.427L7.24 9.283l-2.427 2.426A1.784 1.784 0 1 1 2.29 9.186l2.426-2.427zM6.806 4.67 5.64 3.507 8.068 1.08a3.43 3.43 0 1 1 4.853 4.853L10.494 8.36 9.329 7.194l2.427-2.427a1.784 1.784 0 1 0-2.523-2.523L6.806 4.671z"/><rect x="4.324" y=".824" width="1" height="2.471" rx=".5"/><path d="M1.131 4.941a.308.308 0 0 1-.307-.309c0-.17.14-.308.307-.308h1.855c.17 0 .308.137.308.308a.31.31 0 0 1-.308.31H1.131zm.815-2.639a.308.308 0 0 1 0-.437.31.31 0 0 1 .437 0l1.311 1.311c.12.12.12.315 0 .436a.31.31 0 0 1-.437.001L1.946 2.302zm7.73 10.668a.205.205 0 0 1-.205.206h-.207a.205.205 0 0 1-.205-.206v-2.058c0-.114.091-.206.205-.206h.207c.113 0 .205.09.205.206v2.058zm3.193-3.911a.31.31 0 0 1 0 .618h-1.855a.308.308 0 0 1-.308-.31c0-.17.14-.308.308-.308h1.855zm-.939 2.639a.31.31 0 0 1-.437.437l-1.312-1.311a.308.308 0 0 1 0-.436.31.31 0 0 1 .437-.001l1.311 1.311z"/></svg>