<svg width="15" height="14" xmlns="http://www.w3.org/2000/svg"><g fill="#4A4A4A" fill-rule="evenodd"><path d="M9.314 5.267a3.422 3.422 0 0 0-1.011-.688L7.244 5.638c-.09.09-.163.19-.22.298.408.026.81.191 1.126.496a1.784 1.784 0 0 1-.02 2.502l-2.913 2.912c-.689.689-1.8.696-2.5.022a1.784 1.784 0 0 1 .022-2.501l1.6-1.601a3.997 3.997 0 0 1-.075-2.254l-2.69 2.69a3.43 3.43 0 0 0-.02 4.832 3.43 3.43 0 0 0 4.828-.024l2.912-2.912a3.43 3.43 0 0 0 .02-4.831z"/><path d="M5.671 8.917c.308.301.659.534 1.032.696L7.756 8.56c.094-.094.17-.2.227-.311a1.778 1.778 0 0 1-1.17-.522l.006-.006-.006.006a1.784 1.784 0 0 1 .043-2.477l2.912-2.912a1.784 1.784 0 0 1 2.522 0 571.549 571.549 0 0 0 0 0c.653.7.638 1.797-.043 2.479L10.653 6.41c.244.722.275 1.5.093 2.236l2.665-2.665a3.43 3.43 0 0 0 .02-4.831 3.43 3.43 0 0 0-4.828.023L5.691 4.085a3.43 3.43 0 0 0-.02 4.832z"/></g></svg>