<svg width="100" height="50" xmlns="http://www.w3.org/2000/svg"><g fill="none"><path d="M44.588 38.633h-3.27V10.709h5.052l3.382 23.026c-.508-5.477-1.17-14.312-1.17-18.959V10.71h3.27v27.915h-4.63l-3.107-22.36c.275 5.002.465 10.99.465 14.347v8.022h.008v-.001ZM57.463 26.51v8.6h.62c1.17 0 1.515-.665 1.515-1.99v-4.733c0-1.367-.43-1.877-1.67-1.877h-.465Zm0-12.279v9.224h.465c1.326 0 1.67-.51 1.67-2.033v-5.313c0-1.29-.387-1.878-1.515-1.878h-.62Zm-3.735 24.402V10.709h4.63c3.073 0 4.975 1.68 4.975 5.59v4.11c0 2.544-.775 3.834-1.868 4.5 1.085.7 1.868 1.956 1.868 4.101v4.067c0 3.834-2.022 5.556-4.974 5.556h-4.631Zm14.425-8.411h1.98l-.31-5.123c-.121-2.033-.431-8.48-.663-11.967h-.155L68.463 25.1l-.31 5.123v-.001Zm2.177 3.167h-2.332l-.31 5.235h-3.77l2.72-27.915h5.293l2.642 27.924H70.65l-.319-5.244h-.001Z" fill="#1D428A"/><path d="M34.854 10h-6.833C26.35 10 25 11.367 25 13.037v23.268c0 1.679 1.351 3.046 3.02 3.046h6.834c1.67 0 3.03-1.367 3.03-3.046V13.037C37.875 11.358 36.515 10 34.854 10" fill="#FFF"/><path d="m33.159 15.373.008.096c.207.12.31.225.525.354.56.355 1.248.978 1.154 3.141.155.468.223 1.393.37 1.696.292.58.482.952.568 1.506 0 0 .086.848.19.909.576.13.412.19.49.285.086.113.421.113.421.424.112.156.198.32.267.485V13.037a2.313 2.313 0 0 0-2.306-2.319h-2.212c.353.13.55.277.671.51.284.027.628.667.095 1.619.232.155.051.39-.12.666-.052.087-.104.242-.259.234-.198.424-.439.839-.628.865-.052.07-.095.25-.009.337.284.104.611.277.775.424M37.16 25.8a2.062 2.062 0 0 1-3.376.7 2.057 2.057 0 0 1-.599-1.461c0-.978.671-1.791 1.575-2.016-.241-.597-.74-1.567-.887-1.887-.138-.311-.482-2.284-.55-2.674-.018-.086-.887.511-.887.546-.052.052-.654 1.635-.68 1.722-.009.051-.017.268-.017.268s.292.034.465.554c.172.519.68 2.414.68 2.414s-.138.147-.147.138c.654 2.19.422 3.133.714 3.773.37.908.465.787.784 1.549.223.554.473 2.734.56 2.83.352.45.541.795.541 1.046s-.3 1.004-.19 1.445c.07.26.104.831.216.944 0 0 .112.216.052.311-.017.035-.043.087-.035.121.198.684.818 1.86-.198 2.475h.026a2.31 2.31 0 0 0 1.945-2.293V25.8h.009-.001Z" fill="#C8102E"/><path d="M34.562 35.855c-.37-.329-.12-.476-.138-.606-.241-1.012-1.05-1.635-.628-1.964-.104-.337-.31-.753-.301-.753-1.248-.718-2.316-1.895-2.496-2.068-.224-.242-.594-.484-.663-.675-.301-.277-1.773-2.38-2.117-3.158l-.603-.087c-.275-1.116-1.179-2.059-1.205-3.175-.008-.424.19-1.333.267-1.515.069-.181.422-.484.422-.484v-.303c-1.308.035-.93-.095-1.153-.606-.155-.354-.043-.432.008-.675.172-.726.758-1.843.999-2.345.077-.26.327-.874.327-.874.972-1.99 1.334-1.843 2.496-1.955l.06-.087c1.162-.052.972-.138 1.136-1.263-.172.07-.215-.355-.215-.355-.095-.64.172-.519.3-.528.027-1.047.139-1.375.887-1.67h-3.924a2.313 2.313 0 0 0-2.307 2.321v23.267c0 1.28 1.033 2.328 2.307 2.328h6.833c-.783-.424-.318-1.229-.292-2.769v-.001Z" fill="#1D428A"/></g></svg>