<svg width="100" height="50" xmlns="http://www.w3.org/2000/svg"><path d="M22.124 37.572c-2.134-.085-3.88-.67-5.245-1.754a10.396 10.396 0 0 1-1.09-1.091c-.554-.696-.93-1.374-1.181-2.126-.773-2.314-.375-5.35 1.137-8.683 1.295-2.854 3.293-5.684 6.78-9.603.512-.576 2.042-2.263 2.051-2.263.004 0-.08.144-.184.32-.907 1.518-1.682 3.306-2.105 4.854-.678 2.484-.597 4.616.24 6.27.577 1.139 1.567 2.125 2.68 2.67 1.947.955 4.798 1.033 8.28.231.24-.055 12.12-3.209 26.401-7.008 14.282-3.8 25.967-6.907 25.97-6.904.004.005-33.179 14.203-50.405 21.569-2.727 1.166-3.457 1.461-4.74 1.911-3.278 1.151-6.215 1.7-8.589 1.606Z" fill="#4A4A4A"/></svg>