<svg xmlns="http://www.w3.org/2000/svg" width="256" height="276" fill="none"><path fill="#13263C" d="M128 19.117a127.858 127.858 0 0 0-46.382 8.71 127.993 127.993 0 0 0-47.274 32.094 128.209 128.209 0 0 0-31.792 61.901 128.328 128.328 0 0 0 11.373 83.6 128.212 128.212 0 0 0 22.253 31.159 127.948 127.948 0 0 0 53.995 33.148A127.822 127.822 0 0 0 128 275.454a127.897 127.897 0 0 0 81.022-28.945 128.199 128.199 0 0 0 46.338-86.428 128.305 128.305 0 0 0-27.094-92.466 128.222 128.222 0 0 0-17.806-18.358 128.06 128.06 0 0 0-32.614-20.023A127.904 127.904 0 0 0 128 19.117Z"/><path fill="#FF7402" d="M212.094 186.605a21.46 21.46 0 0 0-19.785 13.152 13.176 13.176 0 0 0-3.392-.46 13.183 13.183 0 0 0-12.773 9.984 17.511 17.511 0 0 0-1.023-.051c-9.415 0-17.047 7.632-17.047 17.047 0 9.415 7.632 17.047 17.047 17.047 9.414 0 17.046-7.632 17.046-17.047a15.89 15.89 0 0 0-.036-1.023 13.188 13.188 0 0 0 4.619-2.187 21.467 21.467 0 0 0 15.344 6.461 21.461 21.461 0 0 0 18.846-11.198 17.48 17.48 0 0 0 2.129 2.147c6.35-9.127 11.5-19.033 15.247-29.452-1.329-.333-2.846-.551-4.216-.557a17.047 17.047 0 0 0-13.536 6.72 21.459 21.459 0 0 0-18.47-10.583Zm-100.14 3.332c0 17.628 1.563 32.435-16.65 48.435l32.921 14.758 32.92-14.758c-18.213-16-16.649-30.807-16.649-48.435h-32.542Z"/><path fill="#fff" d="m39.197 155.494-3.38-12.545-12.546-3.38 12.546-3.38 3.38-12.546 3.38 12.546 12.546 3.38-12.546 3.38-3.38 12.545ZM220.735 127.674l-2.706-10.043-10.043-2.706 10.043-2.706 2.706-10.043 2.706 10.043 10.043 2.706-10.043 2.706-2.706 10.043ZM197.502 165.033l-1.768-6.566-6.566-1.768 6.566-1.769 1.768-6.565 1.769 6.565 6.566 1.769-6.566 1.768-1.769 6.566Z"/><path fill="#FFA005" d="M18.6 172.571c-5.444.01-10.803 2.097-14.772 5.823 3.256 13.103 8.606 25.75 15.836 37.045a21.463 21.463 0 0 0 14.267-6.418 21.463 21.463 0 0 0 19.986 13.647 21.476 21.476 0 0 0 4.638-.535c1.084 8.194 8.066 14.321 16.332 14.33a16.495 16.495 0 0 0 5.193-.86 10.424 10.424 0 0 0 10.258 8.586c.446-.004.891-.037 1.333-.098.96 4.885 5.24 8.41 10.22 8.415a10.427 10.427 0 0 0 9.516-6.188l12.715 8.855c-.032.405-.052.811-.061 1.217a21.461 21.461 0 0 0 11.171 18.808 127.862 127.862 0 0 0 25.972-4.182 21.462 21.462 0 0 0 5.78-14.626l-.005-.143a12.628 12.628 0 0 0 6.824-2.906 16.495 16.495 0 0 0 12.003 5.196c9.11 0 16.495-7.385 16.495-16.495a16.47 16.47 0 0 0-.667-4.611c.71-.227 1.401-.51 2.065-.849 1.258 3.498 3.421 6.741 6.242 9.161 11.09-9.216 20.553-20.328 27.926-32.691-3.869-3.281-8.912-5.155-13.984-5.164a21.46 21.46 0 0 0-16.206 7.413 13.733 13.733 0 0 0-10.282-4.653c-7.586 0-13.736 6.149-13.736 13.735.005.44.03.878.076 1.315a16.496 16.496 0 0 0-11.62 7.156 12.634 12.634 0 0 0-6.451-1.788 12.632 12.632 0 0 0-10.763 6.05 21.45 21.45 0 0 0-9.047-2.171c-8.021-14.635-6.804-27.861-6.804-43.873h-21.651c0 16.3 1.261 29.713-7.246 44.664a10.423 10.423 0 0 0-8.262-4.079c-.446.004-.891.037-1.333.098a10.424 10.424 0 0 0-9.538-8.381 16.5 16.5 0 0 0 .362-3.405c-.008-8.963-7.171-16.28-16.132-16.477a21.47 21.47 0 0 0 .129-2.286c0-11.853-9.609-21.461-21.462-21.461a21.458 21.458 0 0 0-15.331 6.473A21.461 21.461 0 0 0 18.6 172.571Z"/><path fill="#FFCA05" d="M42.48 200.959a21.461 21.461 0 0 0-15.795 6.972 10.421 10.421 0 0 0-6.83-2.557c-1.813.003-3.654.518-5.227 1.42 22.08 42.211 65.784 68.632 113.372 68.66 33.086-.011 64.9-12.82 88.738-35.794-2.641-5.106-7.924-8.344-13.672-8.35a15.393 15.393 0 0 0-14.871 11.494 10.413 10.413 0 0 0-4.444-1.009 10.426 10.426 0 0 0-9.318 5.777 10.383 10.383 0 0 0-2.27-.258 10.421 10.421 0 0 0-7.601 3.308 15.388 15.388 0 0 0-9.506-3.308 15.392 15.392 0 0 0-10.137 3.835 21.459 21.459 0 0 0-16.903-8.25 21.464 21.464 0 0 0-12.342 3.935 10.425 10.425 0 0 0-9.732-6.694 10.424 10.424 0 0 0-7.166 2.861 15.392 15.392 0 0 0-12.7-6.724 15.408 15.408 0 0 0-3.739.476c.24-1.082.364-2.187.368-3.296 0-8.5-6.891-15.391-15.392-15.391a15.43 15.43 0 0 0-3.735.475c-1.871-10.182-10.745-17.577-21.097-17.582Z"/><path fill="#FA2E24" d="M128.319 73.203a7.576 7.576 0 0 0-6.519 3.561L70.564 158.8a7.578 7.578 0 0 0-1.15 4.013v56.033a7.575 7.575 0 0 0 14.129 3.798l44.682-77.108 44.682 77.108a7.577 7.577 0 0 0 14.128-3.798v-56.033a7.583 7.583 0 0 0-1.15-4.013L134.65 76.764a7.576 7.576 0 0 0-6.331-3.56Z"/><path fill="#fff" d="M128.225.546s-43.841 27.31-43.841 96.666c0 22.866 8.173 53.976 20.093 98.463 10.97 6.334 36.526 6.334 47.496 0 14.711-44.487 20.093-75.597 20.093-98.463 0-69.355-43.841-96.666-43.841-96.666Z"/><path fill="#127486" d="M128.225 94.697c10.32 0 18.686-8.367 18.686-18.687s-8.366-18.686-18.686-18.686-18.686 8.366-18.686 18.686 8.366 18.687 18.686 18.687Z"/><path fill="#474747" d="M154.466 187.981c-12.235 5.97-39.358 6.049-51.985.235.654 2.448 1.317 4.926 1.996 7.459 10.97 6.334 36.526 6.334 47.496 0a683.835 683.835 0 0 0 2.493-7.694Z"/><path fill="#FA2E24" d="M128.127 142.318a6.522 6.522 0 0 0-6.422 6.611v60.222a6.527 6.527 0 0 0 4.003 6.107 6.531 6.531 0 0 0 5.033 0 6.524 6.524 0 0 0 4.003-6.107v-60.222a6.531 6.531 0 0 0-1.911-4.704 6.525 6.525 0 0 0-4.706-1.907Z"/><path fill="#1DB7D3" d="M130.072 94.077c8.846 0 16.018-7.172 16.018-16.019 0-8.846-7.172-16.018-16.018-16.018-8.847 0-16.019 7.172-16.019 16.018 0 8.847 7.172 16.019 16.019 16.019Z"/><path fill="#22303B" d="M128.225 54.065c-12.082 0-21.946 9.864-21.946 21.945 0 12.082 9.864 21.946 21.946 21.946s21.946-9.864 21.946-21.946-9.864-21.945-21.946-21.945Zm0 6.519a15.378 15.378 0 0 1 15.427 15.426 15.378 15.378 0 0 1-15.427 15.427 15.377 15.377 0 0 1-15.427-15.427 15.377 15.377 0 0 1 15.427-15.426Z"/><path fill="#FA2E24" d="M128.225.546s-11.699 7.289-23.01 23.896c7.198 1.647 15.053 2.506 23.01 2.517 7.957-.01 15.812-.87 23.011-2.516C139.925 7.835 128.225.546 128.225.546Z"/><path fill="#000" d="M128.225.546v215.209a6.515 6.515 0 0 0 6.047-4.083 6.519 6.519 0 0 0 .472-2.521v-9c6.782-.577 13.059-2.069 17.229-4.476 14.71-44.487 20.093-75.597 20.093-98.463 0-69.355-43.841-96.666-43.841-96.666Z" opacity=".15"/></svg>