<svg width="100" height="50" xmlns="http://www.w3.org/2000/svg"><path d="M26.48 23.452c-4.35-2.611-11.526-2.852-15.68-1.578a1.26 1.26 0 0 1-1.574-.85 1.278 1.278 0 0 1 .84-1.592c4.768-1.463 12.694-1.18 17.703 1.825.6.36.797 1.143.44 1.748a1.254 1.254 0 0 1-1.73.447Zm-.143 3.869a1.046 1.046 0 0 1-1.447.35c-3.626-2.255-9.157-2.907-13.449-1.59a1.051 1.051 0 0 1-1.313-.71 1.068 1.068 0 0 1 .702-1.326c4.901-1.504 10.996-.775 15.162 1.814.494.308.65.962.345 1.462Zm-1.651 3.714a.835.835 0 0 1-1.156.283c-3.17-1.958-7.159-2.4-11.857-1.315a.84.84 0 0 1-1.007-.64.85.85 0 0 1 .633-1.018c5.14-1.188 9.55-.676 13.109 1.521.397.248.52.769.278 1.17Zm-6.19-19.678C11.043 11.357 5 17.465 5 25c0 7.536 6.042 13.643 13.497 13.643 7.454 0 13.497-6.107 13.497-13.643 0-7.535-6.043-13.643-13.498-13.643ZM41.72 23.952c-2.33-.562-2.745-.956-2.745-1.785 0-.782.73-1.309 1.814-1.309 1.05 0 2.092.4 3.185 1.224a.154.154 0 0 0 .115.028.15.15 0 0 0 .1-.063l1.139-1.621a.156.156 0 0 0-.029-.21c-1.3-1.055-2.764-1.567-4.476-1.567-2.516 0-4.273 1.526-4.273 3.71 0 2.342 1.516 3.17 4.136 3.811 2.23.519 2.606.955 2.606 1.732 0 .861-.76 1.397-1.986 1.397-1.36 0-2.47-.463-3.71-1.55a.15.15 0 0 0-.217.018l-1.276 1.535a.154.154 0 0 0 .014.214c1.445 1.304 3.221 1.991 5.137 1.991 2.712 0 4.464-1.497 4.464-3.814 0-1.96-1.158-3.043-3.998-3.741m12.1 2.625c0 1.654-1.008 2.81-2.452 2.81-1.425 0-2.502-1.207-2.502-2.81 0-1.6 1.076-2.808 2.503-2.808 1.42 0 2.451 1.18 2.451 2.808Zm-1.968-4.95c-1.175 0-2.14.47-2.934 1.429v-1.08a.154.154 0 0 0-.152-.154h-2.087a.154.154 0 0 0-.153.155v11.99c0 .086.069.155.153.155h2.087a.154.154 0 0 0 .152-.155v-3.785c.796.902 1.76 1.342 2.934 1.342 2.184 0 4.394-1.699 4.394-4.947 0-3.249-2.21-4.95-4.394-4.95Zm10.06 7.776c-1.496 0-2.622-1.214-2.622-2.826 0-1.617 1.088-2.792 2.588-2.792 1.506 0 2.64 1.216 2.64 2.829 0 1.616-1.094 2.79-2.605 2.79Zm0-7.774c-2.812 0-5.015 2.19-5.015 4.984 0 2.764 2.189 4.93 4.981 4.93 2.822 0 5.032-2.18 5.032-4.966 0-2.774-2.194-4.95-4.997-4.95v.002Zm11.004.193H70.62V19.45a.153.153 0 0 0-.153-.156H68.38a.154.154 0 0 0-.152.154v2.374h-1.003a.153.153 0 0 0-.152.155v1.813c0 .084.069.154.152.154h1.003v4.69c0 1.896.933 2.857 2.774 2.857.748 0 1.368-.156 1.955-.492a.154.154 0 0 0 .077-.134V29.14a.155.155 0 0 0-.073-.132.152.152 0 0 0-.148-.006c-.403.205-.79.298-1.225.298-.67 0-.97-.308-.97-.995v-4.361h2.298a.154.154 0 0 0 .152-.155v-1.814a.153.153 0 0 0-.152-.154m8 .01v-.29c0-.858.325-1.24 1.054-1.24.435 0 .785.087 1.176.22a.152.152 0 0 0 .137-.024.154.154 0 0 0 .064-.125v-1.777a.154.154 0 0 0-.108-.148 5.676 5.676 0 0 0-1.734-.25c-1.927 0-2.947 1.096-2.947 3.17v.447h-1.002a.154.154 0 0 0-.153.153v1.823c0 .085.068.155.153.155h1.003v7.235c0 .085.068.154.152.154h2.087a.153.153 0 0 0 .152-.154v-7.236h1.949l2.984 7.232c-.338.761-.673.913-1.126.913-.369 0-.755-.112-1.152-.331a.155.155 0 0 0-.121-.011.155.155 0 0 0-.09.083l-.707 1.568a.154.154 0 0 0 .065.2 4.356 4.356 0 0 0 2.23.577c1.539 0 2.39-.726 3.142-2.678l3.62-9.455a.156.156 0 0 0-.016-.144.152.152 0 0 0-.126-.067H89.43a.154.154 0 0 0-.145.103L87.06 28.36l-2.437-6.43a.152.152 0 0 0-.142-.1h-3.565m-4.639-.007H74.19a.154.154 0 0 0-.151.155v9.202c0 .085.068.154.153.154h2.087a.153.153 0 0 0 .151-.154v-9.203a.154.154 0 0 0-.153-.154m-1.033-4.19c-.83.005-1.5.681-1.496 1.512a1.505 1.505 0 0 0 1.497 1.513 1.506 1.506 0 0 0 1.497-1.513c0-.836-.67-1.512-1.497-1.512m18.366 5.105h-.382v.493h.382c.19 0 .304-.095.304-.246 0-.161-.114-.247-.304-.247Zm.247.703.416.588h-.35l-.374-.54h-.321v.54h-.293V22.47h.686c.358 0 .594.186.594.498a.464.464 0 0 1-.358.473Zm-.325-1.488c-.752 0-1.322.604-1.322 1.344 0 .74.566 1.336 1.314 1.336.753 0 1.323-.605 1.323-1.345 0-.739-.567-1.335-1.315-1.335Zm-.008 2.828a1.471 1.471 0 0 1-1.467-1.484c0-.814.65-1.493 1.475-1.493A1.471 1.471 0 0 1 95 23.287c0 .814-.65 1.494-1.476 1.494v-.001Z" fill="#1DB954"/></svg>