<?xml version="1.0" encoding="UTF-8" standalone="no"?>
<svg width="148px" height="100px" viewBox="0 0 148 100" version="1.1" xmlns="http://www.w3.org/2000/svg" xmlns:xlink="http://www.w3.org/1999/xlink" xmlns:sketch="http://www.bohemiancoding.com/sketch/ns">
    <!-- Generator: Sketch 3.5.2 (25235) - http://www.bohemiancoding.com/sketch -->
    <title>Tablet</title>
    <desc>Created with Sketch.</desc>
    <defs></defs>
    <g id="Page-1" stroke="none" stroke-width="1" fill="none" fill-rule="evenodd" sketch:type="MSPage">
        <g id="Tablet" sketch:type="MSLayerGroup">
            <path d="M7.16227918,0 C3.22223309,0 5.50023584e-15,3.21277747 5.25395662e-15,7.14126151 L0,91.8881449 C-2.46279217e-16,95.8166289 3.22223309,99.0294064 7.16227918,99.0294064 L139.896544,99.0294064 C143.83659,99.0294064 147.058824,95.8166289 147.058824,91.8881449 L147.058824,7.14126151 C147.058824,3.21277747 143.83659,0 139.896544,0 L7.16227918,0 L7.16227918,0 Z M14.7058824,5.14705882 L14.7058824,93.3823529 L132.352941,93.3823529 L132.352941,5.14705882 L14.7058824,5.14705882 L14.7058824,5.14705882 Z" id="Frame" fill="#FEFEFE" sketch:type="MSShapeGroup"></path>
            <path d="M14.7058824,5.14705882 L14.7058824,93.3823529 L132.352941,93.3823529 L132.352941,5.14705882 L14.7058824,5.14705882 L14.7058824,5.14705882 Z" id="Gap" stroke="#111111" stroke-width="0.5" sketch:type="MSShapeGroup"></path>
            <path d="M8.57518593,49.5633707 C8.57518593,48.9912017 8.13592232,48.5294118 7.59529018,48.5294118 C7.05465804,48.5294118 6.61764706,48.9912017 6.61764706,49.5633707 C6.61764706,50.1377924 7.05465804,50.5950771 7.59529018,50.5950771 C8.13592232,50.5950771 8.57518593,50.1377924 8.57518593,49.5633707" id="Camera" fill="#9B9B9B" sketch:type="MSShapeGroup"></path>
            <path d="M136.029412,49.3366181 C136.029412,51.4067887 137.703119,53.085001 139.773289,53.085001 C141.850218,53.085001 143.526177,51.4067887 143.526177,49.3366181 C143.526177,47.2664476 141.850218,45.5882353 139.773289,45.5882353 C137.703119,45.5882353 136.029412,47.2664476 136.029412,49.3366181 L136.029412,49.3366181 Z" id="Button" fill="#F2F2F2" sketch:type="MSShapeGroup"></path>
        </g>
    </g>
</svg>