<svg xmlns="http://www.w3.org/2000/svg" width="884" height="499" fill="none"><path fill="#253B73" d="M0 .875h884v497.25H0z"/><path fill="#FFFFFE" fill-rule="evenodd" d="M405.933 344.515H383.6V154.742h34.56l23.12 156.546c-3.453-37.206-7.973-97.28-7.973-128.906v-27.64h22.326v189.773H424l-21.267-152.04c1.867 34.02 3.194 74.687 3.194 97.547v54.486m62.466.007V154.742h31.627c21 0 34.02 11.426 34.02 38.006v27.907c0 17.28-5.32 26.047-12.76 30.567 7.44 4.786 12.76 13.286 12.76 27.906v27.64c0 26.047-13.82 37.747-34.02 37.747h-31.627Zm25.514-165.853v62.726h3.186c9.04 0 11.434-3.453 11.434-13.82v-36.146c0-8.774-2.66-12.76-10.367-12.76h-4.253Zm0 83.46v58.466h4.253c7.973 0 10.367-4.513 10.367-13.553v-32.16c0-9.3-2.934-12.753-11.434-12.753h-3.186Zm87.946 46.773h-15.946l-2.134 35.62H538l18.6-189.773h36.147l18.08 189.773H583.98l-2.127-35.62Zm-14.886-21.527h13.56l-2.134-34.82c-.793-13.82-2.92-57.673-4.513-81.333h-1.067l-3.72 81.333-2.126 34.82Zm-227.6-137.493h-46.714a20.672 20.672 0 0 0-14.6 6.053 20.672 20.672 0 0 0-6.053 14.6v158.187a20.684 20.684 0 0 0 20.653 20.68h46.68a20.724 20.724 0 0 0 20.7-20.68V170.528a20.688 20.688 0 0 0-20.666-20.653Z" clip-rule="evenodd"/><path fill="#B52532" fill-rule="evenodd" d="m327.78 186.448.047.68c1.426.827 2.146 1.507 3.586 2.427 3.807 2.4 8.5 6.667 7.907 21.353 1.067 3.2 1.54 9.494 2.533 11.514 1.98 3.933 3.307 6.493 3.887 10.206 0 0 .567 5.78 1.313 6.2 3.94.894 2.8 1.28 3.38 1.954.614.793 2.887.753 2.887 2.873a13.676 13.676 0 0 1 1.813 3.293v-76.42a15.801 15.801 0 0 0-15.766-15.786h-15.094c2.427.866 3.8 1.88 4.594 3.493 1.946.167 4.266 4.533.653 10.993 1.6 1.067.353 2.654-.793 4.5-.334.594-.7 1.647-1.774 1.574-1.366 2.886-3.026 5.68-4.273 5.853-.38.467-.653 1.707-.087 2.293 1.84.82 4.08 1.954 5.187 3Zm27.353 70.854a14.06 14.06 0 0 1-13.1 8.866 14.078 14.078 0 0 1-5.385-1.068 14.086 14.086 0 0 1-4.566-3.049 14.068 14.068 0 0 1-4.122-9.949c0-6.634 4.56-12.2 10.753-13.687-1.62-4.067-5.046-10.647-6.066-12.8-.96-2.147-3.28-15.533-3.78-18.18-.114-.58-6.074 3.46-6.087 3.707-.347.333-4.467 11.106-4.64 11.686-.087.367-.093 1.8-.093 1.8s2.026.254 3.193 3.794c1.153 3.533 4.667 16.42 4.667 16.42s-.947.986-.987.933c4.447 14.88 2.893 21.287 4.887 25.653 2.506 6.147 3.186 5.34 5.333 10.514 1.547 3.766 3.267 18.586 3.84 19.24 2.4 3.046 3.693 5.42 3.693 7.133 0 1.733-2.033 6.833-1.293 9.807.453 1.753.687 5.666 1.5 6.413 0 0 .747 1.473.38 2.133-.107.22-.32.56-.22.834 1.32 4.666 5.6 12.64-1.327 16.813h.147a15.686 15.686 0 0 0 13.273-15.6v-71.413Z" clip-rule="evenodd"/><path fill="#253B73" fill-rule="evenodd" d="M337.36 325.682c-2.533-2.267-.84-3.22-.947-4.114-1.666-6.913-7.16-11.093-4.32-13.373-.7-2.28-2.126-5.147-2.073-5.14-8.553-4.913-15.84-12.893-17.073-14.067-1.5-1.626-4.06-3.266-4.534-4.586-2.06-1.887-12.14-16.187-14.486-21.454l-4.094-.58c-1.866-7.6-8.08-13.98-8.233-21.6-.053-2.886 1.307-9.06 1.813-10.286.5-1.254 2.88-3.3 2.88-3.3v-2.04c-8.926.253-6.36-.66-7.893-4.134-1.08-2.4-.307-2.933.08-4.6 1.2-4.913 5.18-12.5 6.82-15.946.507-1.74 2.227-5.934 2.227-5.934 6.653-13.546 9.14-12.553 17.04-13.32l.386-.56c7.92-.346 6.62-.94 7.734-8.566-1.147.493-1.494-2.394-1.494-2.394-.626-4.333 1.2-3.513 2.067-3.6.193-7.133.92-9.386 6.067-11.353H292.66a15.804 15.804 0 0 0-11.172 4.63 15.791 15.791 0 0 0-4.621 11.177v158.18c0 8.726 7.066 15.8 15.8 15.8h46.7c-5.347-2.894-2.187-8.4-2.007-18.84Z" clip-rule="evenodd"/></svg>
